<svg width="268" height="299" viewBox="0 0 268 299" fill="none" xmlns="http://www.w3.org/2000/svg">
<path d="M0 0H267.98C267.994 0.361098 268 0.722196 268 1.08329C267.986 34.3672 268.017 67.6648 267.972 100.946C267.678 104.13 267.913 107.339 267.557 110.515C267.479 118.131 266.747 125.84 266.31 133.448C265.929 136.771 265.719 140.111 265.301 143.432C264.682 150.999 263.581 158.549 262.591 166.08C261.72 170.537 261 175.053 259.786 179.436C259.069 182.193 258.436 184.961 257.522 187.67C256.157 192.142 254.675 196.566 252.893 200.899C251.64 204.398 249.995 207.716 248.501 211.116C247.299 213.929 245.702 216.601 244.329 219.345C242.462 223.041 240.016 226.433 237.852 229.989C235.837 232.845 233.82 235.712 231.718 238.508C229.588 241.164 227.481 243.845 225.281 246.447C222.658 249.286 220.186 252.208 217.437 254.932C215.582 256.768 213.727 258.606 211.855 260.423C209.798 262.245 207.707 264.031 205.667 265.872C203.176 268.011 200.525 269.984 197.936 272.011C195.741 273.764 193.429 275.25 191.137 276.866C188.391 278.882 185.409 280.62 182.509 282.417C178.964 284.671 175.155 286.564 171.467 288.597C168.091 290.227 164.705 291.849 161.278 293.378C158.069 294.629 154.931 296.048 151.68 297.181C149.931 297.821 148.16 298.415 146.392 299H121.401C120.173 298.74 119.002 298.22 117.802 297.851C114.154 296.664 110.684 295.099 107.125 293.696C105.898 293.211 104.707 292.656 103.522 292.082C100.338 290.585 97.0538 289.133 93.9796 287.428C91.2529 285.888 88.4562 284.521 85.8024 282.841C83.241 281.235 80.6152 279.714 78.1127 278.021C75.0357 275.838 71.8439 273.761 68.9126 271.398C66.4325 269.439 63.916 267.538 61.5368 265.464C59.6312 263.766 57.7144 262.08 55.792 260.401C53.9957 258.694 52.2666 256.913 50.4843 255.19C48.2256 252.998 46.1939 250.629 44.0586 248.329C42.6826 246.824 41.3823 245.298 40.1241 243.695C38.1988 241.26 36.1839 238.957 34.4241 236.404C32.95 234.281 31.3555 232.252 29.9515 230.085C28.2057 227.412 26.471 224.723 24.798 222.004C22.3515 217.375 19.8547 212.837 17.8061 208.025C16.3601 204.972 15.1243 201.846 13.9501 198.686C12.2351 194.361 10.9039 189.943 9.5364 185.506C8.72091 182.94 8.18847 180.286 7.47107 177.69C6.84894 175.411 6.51546 173.086 6.06148 170.775C4.31282 163.222 3.83362 155.13 2.75751 147.454C2.34837 142.946 1.84395 138.5 1.46563 133.973C1.19941 132.315 1.29469 130.644 1.09292 128.98C0.958404 127.656 0.994834 126.34 0.826693 125.016C0.636134 123.419 0.776251 121.862 0.529644 120.278C0.339084 118.782 0.437167 117.215 0.308259 115.713C0.0756635 113.623 0.221386 111.544 0.106489 109.424C0.0196165 107.823 0.0448376 106.223 0 104.623V0ZM257.819 7.16998C176.739 7.16998 95.6554 7.16998 14.5722 7.16998C13.0085 7.18639 11.4112 7.06056 9.85867 7.23837C9.64569 7.97424 9.66531 8.81134 9.6625 9.57456C9.68773 11.1256 9.69613 12.674 9.69053 14.2251C9.68773 42.2184 9.69333 70.2144 9.68773 98.2077C9.67371 101.764 9.82504 105.312 9.97076 108.863C10.0969 113.245 10.1921 117.641 10.5817 122.01C10.8227 124.923 10.9712 127.848 11.1393 130.767C11.7811 138.019 12.4172 145.254 13.3112 152.545C14.037 157.354 14.3789 162.141 15.3233 166.917C15.8837 169.735 16.3321 172.591 17.0579 175.37C17.8117 178.374 18.4843 181.326 19.4231 184.283C21.3819 190.725 23.6658 197.045 26.3925 203.216C27.3565 205.21 28.2029 207.257 29.1753 209.248C30.3831 211.532 31.5769 213.825 32.7819 216.112C33.914 218.311 35.3685 220.313 36.6688 222.453C38.1848 224.937 39.9055 227.284 41.6345 229.628C42.9768 231.428 44.2015 233.288 45.6559 235.006C48.0015 237.799 50.2349 240.757 52.7823 243.366C55.0718 245.79 57.2548 248.29 59.6985 250.569C62.7194 253.679 66.0038 256.431 69.3217 259.235C72.8275 262.318 76.6695 265.032 80.4275 267.809C83.9528 270.115 87.3885 272.621 91.0792 274.653C93.8675 276.213 96.583 277.947 99.475 279.309C102.249 280.685 105.035 282.209 107.893 283.413C109.712 284.181 111.497 285.016 113.319 285.771C116.589 287.155 119.918 288.268 123.253 289.494C125.557 290.35 127.922 290.916 130.262 291.666C131.285 291.978 132.344 292.366 133.406 292.503C134.224 292.601 135.062 292.361 135.844 292.136C139.039 291.149 142.261 290.295 145.394 289.122C148.696 287.893 152.058 286.775 155.278 285.358C158.299 283.984 161.373 282.876 164.285 281.29C166.709 279.969 169.231 278.841 171.664 277.542C173.998 276.166 176.29 274.735 178.672 273.436C182.758 270.785 186.883 268.233 190.725 265.243C192.757 263.648 194.881 262.206 196.806 260.51C199.169 258.445 201.691 256.519 203.958 254.361C206.399 252.096 208.812 249.795 211.132 247.412C213.643 244.663 216.291 242.009 218.614 239.121C220.694 236.566 222.84 234.109 224.74 231.423C226.279 229.281 227.879 227.177 229.35 224.989C230.945 222.445 232.646 219.958 234.173 217.373C235.916 214.216 237.572 211.01 239.203 207.795C241.013 203.676 242.958 199.63 244.446 195.381C246.069 191.494 247.198 187.467 248.49 183.471C249.045 181.764 249.44 180.024 249.858 178.284C250.323 176.336 250.883 174.429 251.264 172.471C251.9 169.144 252.652 165.908 253.069 162.538C253.254 161.009 253.475 159.485 253.666 157.956C254.114 153.524 254.843 149.117 255.216 144.674C255.675 140.032 256.143 135.387 256.547 130.742C256.645 126.45 257.18 122.196 257.382 117.915C257.365 115.439 257.715 112.991 257.687 110.518C257.665 108.141 257.968 105.783 257.954 103.408C257.987 100.763 258.026 98.1174 258.007 95.4721C258.004 67.7524 258.007 40.0299 258.007 12.3102C257.987 10.5785 258.147 8.8852 257.819 7.16998Z" fill="black"/>
<path d="M9.85866 7.23837C11.4112 7.06056 13.0085 7.18639 14.5722 7.16998C95.6554 7.16998 176.739 7.16998 257.819 7.16998C258.147 8.88519 257.987 10.5785 258.007 12.3102C258.007 40.0299 258.004 67.7524 258.007 95.4721C258.026 98.1174 257.987 100.763 257.954 103.408C257.968 105.783 257.665 108.141 257.687 110.518C257.715 112.991 257.365 115.439 257.382 117.915C257.18 122.196 256.645 126.45 256.547 130.742C256.143 135.387 255.675 140.032 255.216 144.674C254.843 149.117 254.114 153.524 253.666 157.956C253.475 159.485 253.254 161.009 253.069 162.538C252.652 165.908 251.9 169.144 251.264 172.471C250.883 174.429 250.323 176.336 249.858 178.284C249.44 180.024 249.045 181.764 248.49 183.471C247.198 187.467 246.069 191.494 244.446 195.381C242.958 199.63 241.013 203.676 239.203 207.795C237.572 211.01 235.916 214.216 234.173 217.373C232.646 219.958 230.944 222.445 229.35 224.989C227.879 227.177 226.279 229.281 224.74 231.423C222.84 234.109 220.693 236.566 218.614 239.121C216.291 242.009 213.643 244.663 211.132 247.412C208.812 249.795 206.399 252.096 203.958 254.361C201.691 256.519 199.169 258.445 196.806 260.51C194.881 262.206 192.757 263.648 190.725 265.243C186.883 268.233 182.758 270.785 178.672 273.436C176.29 274.735 173.998 276.166 171.664 277.542C169.231 278.841 166.709 279.969 164.285 281.29C161.373 282.876 158.299 283.984 155.278 285.358C152.058 286.775 148.696 287.894 145.394 289.122C142.261 290.295 139.039 291.149 135.844 292.136C135.062 292.361 134.224 292.601 133.406 292.503C132.344 292.366 131.285 291.978 130.262 291.666C127.922 290.916 125.556 290.35 123.253 289.494C119.918 288.268 116.589 287.155 113.319 285.771C111.497 285.016 109.712 284.181 107.893 283.413C105.035 282.209 102.249 280.685 99.475 279.309C96.583 277.947 93.8675 276.213 91.0792 274.653C87.3885 272.621 83.9528 270.115 80.4274 267.809C76.6695 265.032 72.8275 262.318 69.3217 259.235C66.0037 256.431 62.7194 253.679 59.6985 250.569C57.2548 248.29 55.0718 245.79 52.7823 243.366C50.2349 240.757 48.0014 237.799 45.6559 235.006C44.2015 233.288 42.9768 231.428 41.6345 229.628C39.9055 227.284 38.1848 224.937 36.6687 222.453C35.3685 220.313 33.914 218.311 32.7819 216.112C31.5769 213.825 30.3831 211.532 29.1753 209.248C28.2028 207.257 27.3565 205.21 26.3925 203.216C23.6658 197.045 21.3819 190.725 19.4231 184.283C18.4843 181.326 17.8117 178.374 17.0579 175.37C16.3321 172.591 15.8837 169.735 15.3232 166.917C14.3788 162.141 14.037 157.354 13.3112 152.545C12.4172 145.254 11.7811 138.019 11.1393 130.767C10.9712 127.848 10.8227 124.923 10.5817 122.01C10.1921 117.641 10.0969 113.245 9.97075 108.863C9.82503 105.312 9.6737 101.764 9.68771 98.2077C9.69332 70.2144 9.68771 42.2184 9.69051 14.2251C9.69612 12.674 9.68771 11.1256 9.66249 9.57456C9.66529 8.81133 9.64568 7.97424 9.85866 7.23837ZM60.8586 69.2487C59.7825 68.9806 59.4238 68.2721 58.9026 67.4022C56.543 67.6949 54.402 68.6578 52.0649 69.4101C48.9234 70.436 45.8801 71.5767 42.9572 73.1387C40.2529 74.7062 39.6392 77.502 37.1255 79.1953C34.6567 80.8859 32.2326 82.5136 29.5031 83.7857C28.5195 84.2699 27.4322 84.6501 26.5186 85.2547L26.4654 85.5775C26.8241 86.3297 27.5247 87.0465 27.7741 87.848C27.9086 88.4881 27.7096 89.3061 27.0455 89.5933C26.3421 89.9134 25.4706 89.938 24.7111 90.0447C25.252 89.3963 25.7816 88.7425 26.3085 88.0833C25.7031 87.4787 25.0222 86.565 24.089 86.5076C23.1194 86.5924 22.1554 87.093 21.3483 87.6018C20.6869 88.0121 20.0844 88.8492 20.303 89.6453C20.6225 90.6985 21.4184 91.7134 21.6537 92.8623C21.8976 94.1426 21.6566 95.5514 21.8303 96.8371C21.9004 97.3296 22.1105 97.77 22.5197 98.0764C23.7191 98.0983 24.9829 97.5347 26.1347 97.2256C29.2789 96.3119 32.3447 96.353 35.5926 96.3365C37.728 96.3256 40.1577 96.8016 41.8951 98.0764C42.9936 98.9928 44.0501 100.21 44.5013 101.567C44.6919 102.106 44.3304 102.486 44.0557 102.918C43.4364 103.739 42.7302 104.554 41.9904 105.276C41.3122 105.996 39.9867 106.021 39.0563 106.231C36.5006 106.631 34.1747 107.79 32.1878 109.385C30.6521 110.687 29.4219 112.233 29.0828 114.241C28.9258 115.185 28.7661 116.572 29.4135 117.373C29.859 117.97 30.5008 117.734 31.1285 117.65C33.7347 117.026 36.226 115.956 38.8378 115.354C41.4664 114.791 44.1146 114.331 46.7964 114.107C50.3134 113.792 53.5557 112.794 56.9494 111.932C58.4374 111.527 59.9226 111.059 61.3518 110.482C62.8959 109.883 63.9468 108.447 65.0818 107.301C66.7548 105.599 68.2204 103.753 69.5291 101.772C69.857 101.228 70.1933 100.741 70.084 100.079C69.8374 98.4101 69.1844 96.7688 68.6996 95.152C67.5731 91.7517 67.0238 88.231 65.802 84.8525C64.8127 82.1607 64.0533 79.406 63.406 76.6184C64.5101 78.3363 65.6394 80.1172 66.4998 81.9665C67.6095 84.3492 68.8257 86.6744 69.8598 89.0927C70.7257 91.1006 71.4095 93.0894 72.4996 95.0043C73.3095 96.4596 74.3379 97.7317 75.3748 99.0393C77.0983 101.222 79.3261 103.058 81.1084 105.2C82.5712 106.945 82.8683 109.435 83.028 111.607C83.1177 112.892 82.958 113.904 82.3414 115.051C81.7642 113.697 81.6885 112.244 81.2009 110.871C80.2649 108.343 78.8637 106.012 76.9553 104.065C76.1819 103.206 75.4505 102.401 74.3688 101.903C73.2254 103.838 72.4155 105.925 71.2554 107.853C70.4651 109.177 69.6468 110.945 68.3045 111.798C66.4185 112.953 64.0561 113.212 61.9375 114.11C62.9156 114.81 63.9552 115.406 65.0117 115.984C67.5535 117.34 69.3946 119.898 69.9074 122.675C70.4791 125.293 70.3782 127.935 69.8822 130.553C70.7958 129.932 71.7037 129.38 72.7714 129.041C72.7546 131.683 72.1213 133.967 72.7602 136.615C73.402 139.056 75.1142 141.091 76.9778 142.762C76.7059 141.124 76.3136 139.575 76.5518 137.907C76.7816 136.293 77.2272 134.766 78.4714 133.606C78.6479 135.611 78.3677 137.556 78.69 139.556C79.0375 142.119 79.8025 144.603 81.6212 146.551C82.7366 147.686 83.9276 148.756 85.2139 149.702C85.2587 147.954 85.099 146.234 85.3007 144.488C85.609 141.857 85.8444 139.214 86.4861 136.678C87.1139 134.159 87.7444 131.689 88.7028 129.268C89.493 127.292 90.1852 125.356 91.1576 123.46C91.9143 122.005 92.5448 120.541 93.6125 119.285C94.4952 118.26 95.4312 117.277 96.3728 116.301C95.7703 117.436 95.1342 118.55 94.5877 119.712C93.6657 121.679 92.5896 123.509 91.9507 125.596C91.152 128.16 90.2385 130.821 89.919 133.48C90.7261 132.703 91.5303 131.935 92.4383 131.265C91.8947 133.365 90.8074 135.217 90.1572 137.283C89.0755 140.694 88.4674 144.42 88.8877 147.984C89.2492 151.368 89.9638 154.703 90.9475 157.964C91.1801 158.697 91.4855 159.4 91.7994 160.103C92.1469 158.965 92.486 157.887 93.2818 156.963C93.6433 158.765 93.4528 160.568 93.7218 162.376C93.9516 163.974 94.2739 165.635 95.1146 167.043C95.8095 168.261 96.7203 169.273 96.9641 170.684C97.5806 174.818 97.2864 178.872 97.5862 183.011C97.7348 186.474 97.7656 189.784 96.9641 193.19C96.5101 194.763 95.6218 196.35 94.3944 197.474C93.0352 198.702 90.9559 197.734 89.3641 198.845C88.005 199.646 87.5538 201.036 86.4469 202.007C85.0401 202.945 82.9664 203.03 81.54 204.067C80.6432 204.671 80.0295 205.476 79.3878 206.313C80.2369 206.707 81.5092 206.975 81.7978 207.968C82.3471 209.464 81.6997 210.87 81.1196 212.246C82.7674 212.361 84.5441 212.057 85.7715 213.354C86.8785 214.35 86.9233 215.57 87.0858 216.935C87.1755 217.334 87.1307 217.975 87.5959 218.147C88.3525 218.308 89.1932 218.199 89.9582 218.15C92.4607 217.89 95.0081 217.518 97.4293 216.845C99.4554 216.278 101.453 215.794 103.404 214.998C105.287 214.227 107.069 213.505 108.636 212.191C110.811 210.397 112.15 207.913 113.641 205.596C114.776 203.823 115.547 201.925 116.306 199.977C117.035 198.073 117.786 196.21 118.248 194.221C119.097 190.471 120.263 187.019 120.619 183.161C120.706 182.064 120.871 180.992 121.104 179.914C122.768 180.136 123.539 181.263 124.73 182.253C125.576 179.786 125.929 177.151 126.47 174.607C126.756 173.07 127.003 171.552 127.597 170.094C128.566 171.103 129.205 172.296 129.934 173.469C130.22 170.925 130.399 168.332 130.458 165.774C130.542 163.495 129.463 161.424 129.006 159.088C128.362 155.899 127.667 152.506 127.91 149.248C128.023 146.893 128.014 144.631 128.706 142.344C129.334 140.344 129.917 138.273 131.75 137.001C131.601 139.876 130.455 142.511 130.222 145.386C129.822 149.856 130.668 154.462 132.268 158.653C133.322 161.424 135.286 164.176 138.316 165.068C138.189 164.31 138.058 163.555 137.943 162.798C138.834 162.951 139.708 163.142 140.577 163.386C142.85 164.04 145.296 164.22 147.653 164.193C147.252 163.67 146.849 163.148 146.454 162.623C148.384 162.136 150.214 162.404 152.179 162.27C153.925 162.177 155.623 161.854 157.299 161.381C157.321 160.94 157.344 160.5 157.366 160.059C161.116 159.036 165.098 158.916 168.85 157.874C168.811 157.313 168.774 156.752 168.741 156.191C170.949 155.376 173.11 155.461 175.427 155.305C177.579 155.16 179.712 155.327 181.864 155.371C181.791 154.337 181.688 153.313 181.545 152.288C181.222 149.314 181.105 146.321 181.245 143.334C181.351 141.416 181.752 139.627 182.568 137.876C182.971 140.073 182.834 142.226 182.935 144.439C183.038 147.087 183.361 149.735 183.831 152.345C184.227 154.49 184.552 156.582 185.255 158.661C185.734 160.166 186.407 161.583 187.043 163.027C187.239 161.107 187.124 159.31 188.279 157.655C188.937 160.834 188.859 163.952 190.03 167.082C190.641 168.925 191.698 170.498 192.776 172.101C193.937 173.836 195.021 175.598 196.33 177.231C196.59 175.961 196.478 174.511 197.512 173.568C198.603 175.425 198.639 177.51 199.567 179.427C200.463 181.318 201.472 183.2 202.728 184.888C203.114 184.195 203.512 183.509 203.933 182.836C205.782 184.578 206.718 186.72 207.674 189.002C208.534 191.119 209.111 193.253 208.912 195.554C208.781 197.083 207.946 198.642 206.595 199.468C205.583 200.026 204.336 200.245 203.224 200.563C201.189 201.071 199.222 201.772 197.207 202.341C196.299 202.611 195.456 202.863 194.733 203.492C193.634 204.442 192.67 205.58 191.706 206.657C192.457 207.226 193.528 207.883 193.883 208.775C194.197 209.727 194.063 210.87 194.024 211.858C195.478 212.265 197.221 212.629 198.227 213.825C199.286 214.965 199.292 216.675 199.483 218.128C201.007 218.254 202.517 218.262 204.031 218.005C208.201 217.326 212.312 216.73 216.392 215.619C218.306 215.08 220.141 214.183 221.957 213.387C223.524 212.643 225.396 211.809 226.545 210.498C228.036 208.679 228.4 206.496 228.882 204.291C229.697 200.852 230.16 197.362 230.894 193.91C231.387 191.226 231.866 188.542 232.413 185.87C232.746 183.99 233.315 182.073 232.987 180.163C232.693 178.453 232.178 176.777 231.712 175.105C231.143 173.089 230.244 171.163 229.992 169.144C229.762 167.284 229.608 165.427 229.79 163.555C230.224 163.821 230.656 164.089 231.085 164.362C231.466 162.155 231.651 159.95 232.236 157.778C233.021 154.785 233.2 151.85 233.66 148.794C233.974 146.775 234.055 144.726 234.417 142.716C235.322 143.553 235.372 145.109 235.916 146.195C236.843 144.114 236.97 141.988 237.283 139.772C237.763 136.254 237.379 132.572 236.821 129.082C236.476 126.48 235.989 123.911 235.182 121.405C234.316 118.746 233.601 116.049 232.713 113.398C232.026 111.311 231.211 109.361 230.956 107.161C231.55 107.41 232.407 107.588 232.76 108.157C233.722 109.588 233.982 111.585 234.767 113.07C235.047 113.56 235.51 114.08 236.148 113.935C236.956 113.71 237.676 113.059 238.25 112.482C239.993 110.696 241.137 108.086 240.812 105.597C240.492 102.91 239.579 100.287 238.163 97.9615C236.625 95.5405 234.047 94.1426 232.55 91.7818C233.226 91.686 233.901 91.6012 234.576 91.511C231.967 88.3185 228.666 85.7662 224.765 84.248C223.017 83.5121 221.288 83.3644 219.718 82.2482C219.94 81.8981 220.164 81.5479 220.385 81.2005C217.796 79.5592 214.982 79.1023 211.989 78.6345C209.083 78.2023 206.163 78.1175 203.17 77.967C200.564 77.8275 198.093 78.5579 195.489 78.5032C195.573 78.0546 195.657 77.6059 195.741 77.1573C193.522 77.2257 191.398 77.1683 189.187 77.4692C187.651 77.6825 186.107 77.874 184.585 78.1749C181.996 78.7275 179.37 79.5127 176.736 79.8272C177.215 79.2883 177.717 78.7686 178.224 78.2515C177.061 78.2598 175.906 78.2461 174.746 78.3637C170.405 78.8096 166.221 79.1078 161.953 80.1446C158.49 81.0364 154.785 81.5726 151.204 81.2662C152.092 80.5303 153.067 79.9503 154.112 79.4497C149.937 79.4306 145.907 79.7479 141.844 78.7029C139.804 78.1339 137.822 77.5594 135.953 76.5746C133.515 75.267 130.774 74.4026 128.023 74.0196C125.523 73.8637 123.177 73.6612 120.717 74.0962C118.226 74.4901 115.86 75.4202 113.369 75.7375C113.691 75.185 113.941 74.6597 114.468 74.2576C115.922 73.0676 117.979 72.7612 119.761 72.1676C117.945 71.5083 116.076 70.994 114.232 70.4141C112.273 69.804 110.225 69.5195 108.171 69.67C106.8 69.7767 105.438 69.9709 104.082 70.1706C102.765 70.3539 101.577 70.7369 100.229 70.5591C101.302 68.9697 102.928 68.8302 104.665 68.3706C102.729 67.5171 100.719 66.8715 98.7548 66.0864C97.3648 65.5311 95.9637 65.0988 94.4952 64.7788C92.1104 64.27 89.8714 63.6927 87.4361 63.493C84.2358 63.1702 81.142 63.4137 77.9053 63.2523C76.8797 63.1867 75.882 63.2578 74.8704 63.4247C75.3328 64.8034 75.7615 66.1438 75.7027 67.6183C74.2371 66.6198 73.3739 65.1016 71.9111 64.114C69.9607 62.7161 67.2312 62.1006 64.894 62.7982C63.4032 63.2468 62.0945 64.3383 61.4471 65.728C60.9735 66.7812 60.9623 68.1135 60.8586 69.2487ZM22.5869 99.7697C22.416 100.579 22.3235 101.277 22.699 102.054C22.9092 102.431 23.181 102.793 23.4332 103.145C24.1534 101.701 24.8793 100.257 25.5126 98.7767C24.4729 98.9436 23.5285 99.3238 22.5869 99.7697ZM33.5918 99.5426C30.5036 100.85 28.6484 103.238 26.0366 104.989C25.5518 105.164 25.0558 105.317 24.5626 105.479C24.7531 105.725 24.9549 106.231 25.2884 106.289C25.8321 106.294 26.4037 106.083 26.9138 105.917C29.2005 105.252 30.6493 103.435 32.7707 102.571C33.7067 102.524 34.6511 102.535 35.5842 102.607C36.0662 102.809 36.5342 103.093 36.9882 103.353C36.991 103.846 37.2208 104.294 37.7476 104.396L38.1428 104.491C38.8013 104.631 39.5187 104.847 40.1773 104.606C40.6537 104.409 41.0236 103.909 41.3515 103.534C41.7942 102.979 42.2678 102.393 42.5425 101.739C42.3631 100.426 40.6789 99.4387 39.5187 99.0119C37.5207 98.3445 35.4777 98.7384 33.5918 99.5426ZM27.931 113.308C28.3906 112.498 28.8082 111.678 29.1837 110.83C28.2617 110.477 27.3145 110.326 26.3309 110.236C26.0422 110.19 25.7508 110.151 25.4565 110.121C25.5238 110.909 25.6527 111.686 26.188 112.31C26.6391 112.876 27.2809 113.029 27.931 113.308ZM41.741 135.308C41.3571 135.505 40.9816 135.713 40.6229 135.948C40.295 136.552 41.2814 136.848 41.755 136.747C42.4612 137.379 43.1646 137.926 43.683 138.727C44.3892 139.811 44.818 141.102 45.4009 142.256C46.2107 142.946 47.5615 142.688 48.5675 142.743C49.1924 142.751 49.8174 142.749 50.4451 142.743C50.3218 140.705 48.9655 139.069 47.6203 137.617C46.5442 136.473 45.1739 135.879 43.7139 135.343C42.9796 134.966 42.4752 134.829 41.741 135.308ZM28.5447 137.838C28.1244 137.983 27.7124 138.183 27.3089 138.369C28.7465 139.304 30.1729 139.939 31.3807 141.159C32.4232 142.16 33.1938 143.419 34.2699 144.371C34.567 144.628 34.7688 144.71 35.1611 144.603C35.5702 144.182 35.8729 143.629 36.1727 143.129C36.6659 142.817 37.0302 142.508 37.3217 141.999C37.5459 141.682 37.7785 141.37 38.0055 141.055C36.7136 139.162 33.9168 138.254 31.7366 137.816C30.6577 137.603 29.6096 137.483 28.5447 137.838ZM81.4167 169.27C80.6012 168.51 79.9903 167.949 79.9819 166.751C81.6549 166.855 83.1485 167.429 84.729 167.9C86.9709 168.567 89.1203 168.783 91.4603 168.575C90.7261 166.759 89.5883 165.159 88.8009 163.369C87.9546 161.474 87.3212 159.482 86.6571 157.521C86.2115 156.23 85.9285 155.026 84.8664 154.063C83.4232 152.755 81.8819 151.483 80.562 150.053C79.7409 149.158 79.2056 148.108 78.4714 147.158C77.8885 146.412 77.0786 145.977 76.3052 145.443C75.2459 144.732 74.3183 143.744 73.43 142.839C71.7149 144.146 70.4819 145.605 68.3353 146.286C65.1771 147.301 62.0104 148.299 58.8746 149.382C57.2576 149.971 55.31 150.091 53.6902 149.456C52.5665 149.002 52.0564 147.621 51.5801 146.619C51.1541 145.763 50.8094 144.598 49.7613 144.308C47.5026 143.594 44.8348 143.731 42.5453 143.304C41.1917 143.052 39.9447 142.319 38.5968 142.967C37.2572 143.525 36.7024 144.699 36.3717 146.007C36.055 147.377 35.601 148.685 35.1162 150.003C34.4213 151.91 35.1415 153.861 34.9537 155.937C34.9173 157.048 34.5053 158.224 34.6539 159.321C34.8893 160.42 35.9485 161.219 36.778 161.909C38.3978 163.23 39.7709 164.65 41.727 165.533C47.752 168.326 54.416 169.839 61.094 169.793C62.9968 169.806 64.8968 169.85 66.7968 169.689C69.1844 169.489 71.572 169.615 73.9624 169.486C76.4509 169.369 78.9226 169.204 81.4167 169.27ZM32.5241 151.642C32.8351 151.694 33.149 151.729 33.4629 151.768C33.7235 149.995 34.6034 148.384 34.6791 146.608C33.6562 146.094 32.6306 145.632 31.4928 145.416C29.775 145.044 28.1468 145.249 26.4402 145.531C25.6191 145.684 24.7223 145.864 23.9853 146.261C23.7583 146.327 23.4473 146.751 23.8088 146.838C25.3444 147.552 26.9222 148.14 28.3766 149.019C29.8142 149.815 31.0921 150.843 32.5241 151.642ZM23.5005 155.187C25.2155 155.816 26.9922 156.208 28.6876 156.892C29.6208 157.236 30.4896 157.71 31.4059 158.09C32.2046 158.517 32.7174 158.259 33.5021 157.991C33.8552 156.774 34.0401 155.253 33.5637 154.055C33.2106 153.308 32.4988 153.13 31.7282 153.04C29.6152 152.802 27.3089 153.45 25.322 154.12C24.6214 154.334 24.0582 154.736 23.5005 155.187ZM171.678 157.589C171.776 158.131 171.874 158.67 171.966 159.214C168.819 160.188 165.442 160.36 162.245 161.151C160.978 161.446 160.244 162.727 159.577 163.717C158.366 165.711 157.047 167.976 156.755 170.301C156.405 172.722 156.183 175.157 155.805 177.573C155.455 179.643 155.469 181.731 155.208 183.81C154.807 186.937 154.883 189.749 153.403 192.646C152.566 194.301 151.049 195.628 149.332 196.372C147.465 197.176 145.504 197.748 143.494 198.087C142.343 198.311 141.084 198.437 140.126 199.159C139.182 199.876 138.288 200.653 137.357 201.386C136.85 201.777 136.559 202.291 136.225 202.819C137.063 203.449 138.061 204.1 138.666 204.956C139.324 205.891 138.952 207.185 138.834 208.236C140.022 208.581 141.572 208.805 142.32 209.855C143.178 210.922 143.29 212.093 143.511 213.382C143.601 213.748 143.62 214.333 143.988 214.547C144.68 214.785 145.52 214.7 146.241 214.667C148.99 214.416 151.697 214.117 154.342 213.313C157.442 212.495 160.474 211.499 163.343 210.077C164.45 209.524 165.809 209.005 166.667 208.113C167.418 207.251 167.796 206.017 168.242 204.983C169.203 202.527 170.467 200.226 171.537 197.813C172.981 194.588 174.6 191.601 175.786 188.282C176.795 185.747 177.453 183.342 179.02 181.055C179.356 180.511 179.838 180.133 180.334 179.736C180.869 180.273 181.41 180.806 181.954 181.334C182.68 179.608 183.013 177.649 183.986 176.052C184.339 175.422 184.899 175.07 185.468 174.646C186.138 175.165 186.802 175.688 187.474 176.202C188.169 175.313 188.764 174.369 189.327 173.395C188.764 172.539 188.195 171.691 187.595 170.859C185.821 168.28 185 165.473 183.963 162.595C183.358 161.093 182.747 159.296 181.618 158.09C180.858 157.28 179.863 157.187 178.801 157.151C176.383 157.149 174.048 157.023 171.678 157.589ZM80.6348 196.618C79.2393 196.924 78.0062 197.417 76.8348 198.226L77.0702 198.3C78.9506 199.285 81.4307 199.26 83.5016 199.709C84.2218 199.996 84.942 200.275 85.6706 200.538C86.5282 199.504 87.3857 198.511 88.5403 197.778C88.8821 197.559 89.2296 197.348 89.5743 197.135C88.7644 196.503 88.1283 196.311 87.0998 196.254C84.9841 196.169 82.6693 196.024 80.6348 196.618ZM124.357 204.083L124.637 204.113C126.784 204.474 128.827 204.576 130.903 203.821C131.8 203.613 132.739 203.476 133.602 203.164C134.174 202.904 134.622 202.368 135.113 201.985C135.628 201.627 135.807 201.383 136.004 200.795C136.573 200.158 137.111 199.504 137.615 198.817C134.953 199.066 132.142 199.425 129.659 200.437C127.762 201.307 125.643 202.425 124.357 204.083ZM76.4341 201.802C74.3015 202.278 71.9952 202.789 70.056 203.801C69.1984 204.258 68.3073 204.663 67.4694 205.156C67.2732 205.391 67.0855 205.632 66.8949 205.87C68.5175 206.146 70.1036 206.031 71.7346 205.938C73.657 205.834 75.8372 206.209 77.6083 205.424C79.0823 204.45 80.4302 203.156 81.6801 201.917L81.3802 201.854C80.5928 201.676 79.7829 201.441 78.973 201.419C78.0959 201.402 77.2832 201.616 76.4341 201.802ZM179.74 207.47L180.219 207.648C182.066 208.129 184.117 207.787 186.023 207.962C185.86 208.211 185.698 208.457 185.532 208.706C183.994 209.01 182.5 209.407 181.13 210.181C179.541 211.1 177.994 211.85 176.938 213.379C177.733 213.576 178.524 213.688 179.348 213.636C182.352 213.475 185.328 213.614 188.321 213.562C189.599 213.513 190.93 213.387 191.93 212.525C193.079 211.603 193.267 209.606 192.023 208.674C191.745 208.457 191.44 208.277 191.112 208.146C190.086 207.899 189.075 207.836 188.027 207.765C188.699 207.473 189.411 207.194 190.027 206.794C190.453 206.507 190.692 205.935 190.969 205.517C191.748 204.461 192.684 203.553 193.536 202.538C191.538 202.111 189.859 202.781 187.872 203.112C184.714 203.706 182.066 205.366 179.74 207.47ZM121.518 209.735C123.951 210.039 126.456 209.855 128.908 209.896C130.853 209.869 133.061 210.08 134.911 209.459C135.99 209.139 136.861 208.291 137.22 207.251C137.464 206.408 136.786 205.448 136.063 205.035C134.779 204.384 133.243 204.524 131.873 204.792C129.589 205.257 127.333 205.667 125.318 206.863C123.914 207.708 122.558 208.449 121.518 209.735ZM77.3084 207.875C75.6915 208.332 74.153 209.133 72.6817 209.918C70.5183 211.067 68.652 212.788 67.1975 214.716C69.5067 214.599 71.6533 213.992 73.9456 213.65C75.2319 213.617 76.4621 213.581 77.6615 213.061C79.3261 212.484 80.0407 211.1 80.6264 209.585C80.5676 208.983 80.5872 208.43 80.0547 208.017C79.3457 207.418 78.1379 207.7 77.3084 207.875ZM127.14 214.886C129.872 215.045 132.618 214.908 135.354 214.952C137.209 214.919 139.081 215.037 140.93 214.908C141.468 214.881 141.849 214.648 141.947 214.106C142.118 212.938 141.838 211.502 140.812 210.758C139.683 209.951 138.175 209.853 136.842 210.126C134.087 210.723 131.45 211.784 129.057 213.242C128.317 213.68 127.714 214.265 127.14 214.886ZM188.848 214.462C186.454 215.247 184.252 216.653 182.413 218.33C184.899 218.653 187.48 218.415 189.999 218.47C191.961 218.442 193.928 218.535 195.884 218.459C197.064 218.494 197.922 217.269 197.711 216.196C197.56 215.428 197.044 214.711 196.47 214.18C195.977 213.74 195.461 213.398 194.775 213.335C192.827 213.094 190.652 213.797 188.848 214.462ZM71.9952 221.276C73.1497 221.14 74.2567 220.847 75.3552 220.494C76.6219 220.316 77.8549 220.086 79.0599 219.665C80.6544 219.104 82.4171 218.866 83.8491 218.065C84.3395 217.794 84.7711 217.425 84.9757 216.899C85.197 215.926 84.7206 214.902 83.8155 214.44C82.7366 213.8 81.4867 213.909 80.3742 214.399C79.1944 214.935 78.0931 215.647 76.9974 216.328C75.0301 217.635 73.1105 219.178 71.9952 221.276Z" fill="#565A24"/>
<path d="M71.9111 64.114C73.3739 65.1016 74.2371 66.6198 75.7027 67.6183C75.7615 66.1438 75.3328 64.8034 74.8704 63.4246C75.882 63.2578 76.8797 63.1866 77.9053 63.2523C81.1421 63.4137 84.2359 63.1702 87.4361 63.493C89.8714 63.6927 92.1105 64.2699 94.4953 64.7788C95.9637 65.0988 97.3649 65.531 98.7548 66.0864C100.719 66.8715 102.729 67.5171 104.665 68.3706C102.928 68.8302 101.302 68.9697 100.229 70.5591C101.577 70.7369 102.765 70.3539 104.082 70.1706C105.438 69.9709 106.8 69.7767 108.171 69.67C110.225 69.5195 112.273 69.804 114.232 70.4141C116.076 70.994 117.945 71.5083 119.761 72.1676C117.979 72.7612 115.922 73.0676 114.468 74.2576C113.941 74.6597 113.691 75.1849 113.369 75.7375C115.86 75.4202 118.226 74.4901 120.717 74.0962C123.177 73.6612 125.523 73.8636 128.023 74.0196C130.774 74.4026 133.515 75.267 135.953 76.5746C137.822 77.5594 139.804 78.1339 141.844 78.7029C145.907 79.7479 149.937 79.4306 154.112 79.4497C153.067 79.9503 152.092 80.5303 151.204 81.2662C154.785 81.5725 158.49 81.0364 161.953 80.1446C166.221 79.1078 170.405 78.8096 174.746 78.3637C175.906 78.2461 177.061 78.2597 178.224 78.2515C177.717 78.7686 177.215 79.2883 176.736 79.8272C179.37 79.5126 181.996 78.7275 184.585 78.1749C186.107 77.874 187.651 77.6825 189.187 77.4692C191.398 77.1682 193.522 77.2257 195.741 77.1573C195.657 77.6059 195.573 78.0546 195.489 78.5032C198.093 78.5579 200.564 77.8275 203.17 77.967C206.163 78.1175 209.083 78.2023 211.989 78.6345C214.982 79.1023 217.796 79.5591 220.385 81.2005C220.164 81.5479 219.94 81.8981 219.718 82.2482C221.288 83.3644 223.017 83.5121 224.765 84.2479C228.666 85.7662 231.967 88.3185 234.576 91.5109C233.901 91.6012 233.226 91.686 232.55 91.7818C234.047 94.1426 236.625 95.5405 238.163 97.9615C239.579 100.287 240.492 102.91 240.812 105.596C241.137 108.086 239.993 110.696 238.25 112.482C237.676 113.059 236.956 113.71 236.148 113.935C235.51 114.08 235.047 113.56 234.767 113.07C233.982 111.585 233.722 109.588 232.76 108.157C232.407 107.588 231.55 107.41 230.956 107.161C231.211 109.361 232.026 111.311 232.713 113.398C233.601 116.049 234.316 118.746 235.182 121.405C235.989 123.911 236.476 126.48 236.821 129.082C237.379 132.572 237.763 136.254 237.283 139.772C236.97 141.988 236.843 144.114 235.916 146.195C235.372 145.109 235.322 143.553 234.417 142.716C234.055 144.726 233.974 146.775 233.66 148.794C233.2 151.85 233.021 154.785 232.236 157.778C231.651 159.95 231.466 162.155 231.085 164.362C230.656 164.089 230.224 163.821 229.79 163.555C229.608 165.427 229.762 167.284 229.992 169.144C230.244 171.163 231.143 173.089 231.712 175.105C232.178 176.777 232.693 178.453 232.987 180.163C233.315 182.073 232.746 183.99 232.413 185.87C231.866 188.542 231.387 191.226 230.894 193.91C230.16 197.362 229.697 200.852 228.882 204.291C228.4 206.496 228.036 208.679 226.545 210.498C225.396 211.809 223.524 212.643 221.957 213.387C220.141 214.183 218.306 215.08 216.392 215.619C212.312 216.73 208.201 217.326 204.031 218.005C202.517 218.262 201.007 218.254 199.483 218.128C199.292 216.675 199.286 214.965 198.227 213.825C197.221 212.629 195.478 212.265 194.024 211.858C194.063 210.87 194.197 209.727 193.883 208.775C193.528 207.883 192.457 207.226 191.706 206.657C192.67 205.58 193.634 204.442 194.733 203.492C195.456 202.863 196.299 202.611 197.207 202.341C199.222 201.772 201.189 201.071 203.224 200.562C204.336 200.245 205.583 200.026 206.595 199.468C207.946 198.642 208.781 197.083 208.912 195.554C209.111 193.253 208.534 191.119 207.674 189.002C206.718 186.72 205.782 184.578 203.933 182.836C203.512 183.509 203.114 184.195 202.728 184.888C201.472 183.2 200.463 181.318 199.567 179.427C198.639 177.51 198.603 175.425 197.512 173.568C196.478 174.511 196.59 175.961 196.33 177.231C195.021 175.598 193.937 173.836 192.776 172.101C191.698 170.498 190.641 168.925 190.03 167.082C188.859 163.952 188.937 160.834 188.279 157.655C187.124 159.31 187.239 161.107 187.043 163.027C186.407 161.583 185.734 160.166 185.255 158.661C184.552 156.582 184.227 154.49 183.831 152.345C183.361 149.735 183.038 147.087 182.935 144.439C182.834 142.226 182.971 140.073 182.568 137.876C181.752 139.627 181.351 141.416 181.245 143.334C181.105 146.321 181.222 149.314 181.545 152.288C181.688 153.313 181.791 154.337 181.864 155.371C179.712 155.327 177.579 155.16 175.427 155.305C173.11 155.461 170.949 155.376 168.741 156.191C168.774 156.752 168.811 157.313 168.85 157.874C165.098 158.916 161.116 159.036 157.366 160.059C157.344 160.5 157.321 160.94 157.299 161.381C155.623 161.854 153.925 162.177 152.179 162.27C150.214 162.404 148.384 162.136 146.454 162.623C146.849 163.148 147.252 163.67 147.653 164.193C145.296 164.22 142.85 164.04 140.577 163.386C139.708 163.142 138.834 162.951 137.943 162.798C138.058 163.555 138.19 164.31 138.316 165.068C135.286 164.176 133.322 161.424 132.268 158.653C130.668 154.462 129.822 149.856 130.222 145.386C130.455 142.511 131.601 139.876 131.75 137.001C129.917 138.273 129.334 140.344 128.706 142.344C128.014 144.631 128.023 146.893 127.91 149.248C127.667 152.506 128.362 155.899 129.006 159.088C129.463 161.424 130.542 163.495 130.458 165.774C130.399 168.332 130.22 170.925 129.934 173.469C129.205 172.296 128.566 171.103 127.597 170.094C127.003 171.552 126.756 173.07 126.47 174.607C125.929 177.151 125.576 179.786 124.73 182.253C123.539 181.263 122.768 180.136 121.104 179.914C120.871 180.992 120.706 182.064 120.619 183.161C120.263 187.019 119.097 190.471 118.248 194.221C117.786 196.21 117.035 198.073 116.306 199.977C115.547 201.925 114.776 203.823 113.641 205.596C112.15 207.913 110.811 210.397 108.636 212.191C107.069 213.505 105.287 214.227 103.404 214.998C101.453 215.794 99.4554 216.278 97.4293 216.845C95.0081 217.518 92.4607 217.89 89.9583 218.15C89.1932 218.199 88.3525 218.308 87.5959 218.147C87.1307 217.975 87.1755 217.334 87.0858 216.935C86.9233 215.57 86.8785 214.35 85.7715 213.354C84.5441 212.057 82.7674 212.361 81.1196 212.246C81.6997 210.87 82.3471 209.464 81.7978 207.968C81.5092 206.975 80.2369 206.707 79.3878 206.313C80.0295 205.476 80.6432 204.671 81.54 204.067C82.9664 203.03 85.0401 202.945 86.4469 202.007C87.5538 201.036 88.005 199.646 89.3642 198.845C90.9559 197.734 93.0352 198.702 94.3944 197.474C95.6218 196.35 96.5101 194.763 96.9641 193.19C97.7656 189.784 97.7348 186.474 97.5863 183.011C97.2864 178.872 97.5806 174.818 96.9641 170.684C96.7203 169.273 95.8096 168.261 95.1146 167.043C94.2739 165.634 93.9516 163.974 93.7218 162.376C93.4528 160.568 93.6433 158.765 93.2818 156.963C92.486 157.887 92.1469 158.965 91.7994 160.103C91.4855 159.4 91.1801 158.697 90.9475 157.964C89.9639 154.703 89.2493 151.368 88.8877 147.984C88.4674 144.42 89.0755 140.694 90.1572 137.283C90.8074 135.217 91.8947 133.365 92.4383 131.265C91.5304 131.935 90.7261 132.703 89.919 133.48C90.2385 130.821 91.152 128.16 91.9507 125.596C92.5897 123.509 93.6658 121.679 94.5877 119.712C95.1342 118.55 95.7703 117.436 96.3728 116.301C95.4312 117.277 94.4952 118.26 93.6125 119.285C92.5448 120.541 91.9143 122.005 91.1577 123.46C90.1852 125.356 89.4931 127.292 88.7028 129.268C87.7444 131.689 87.1139 134.159 86.4861 136.678C85.8444 139.214 85.609 141.857 85.3007 144.488C85.099 146.234 85.2587 147.954 85.2139 149.702C83.9276 148.756 82.7366 147.686 81.6213 146.551C79.8025 144.603 79.0375 142.119 78.69 139.556C78.3677 137.556 78.648 135.611 78.4714 133.606C77.2272 134.766 76.7816 136.293 76.5518 137.907C76.3136 139.575 76.7059 141.124 76.9778 142.762C75.1142 141.091 73.402 139.055 72.7602 136.615C72.1213 133.967 72.7546 131.683 72.7714 129.04C71.7037 129.38 70.7958 129.932 69.8822 130.553C70.3782 127.935 70.4791 125.293 69.9074 122.675C69.3946 119.898 67.5535 117.34 65.0117 115.984C63.9552 115.406 62.9156 114.81 61.9375 114.11C64.0561 113.212 66.4185 112.952 68.3045 111.798C69.6468 110.945 70.4651 109.177 71.2554 107.853C72.4155 105.925 73.2254 103.838 74.3688 101.903C75.4505 102.401 76.1819 103.206 76.9553 104.065C78.8637 106.012 80.2649 108.343 81.2009 110.871C81.6885 112.244 81.7642 113.697 82.3415 115.051C82.958 113.904 83.1177 112.892 83.028 111.607C82.8683 109.435 82.5713 106.945 81.1084 105.2C79.3261 103.058 77.0983 101.222 75.3748 99.0393C74.3379 97.7317 73.3095 96.4596 72.4996 95.0043C71.4095 93.0894 70.7257 91.1006 69.8598 89.0927C68.8257 86.6744 67.6095 84.3492 66.4998 81.9665C65.6395 80.1172 64.5101 78.3363 63.406 76.6184C64.0533 79.406 64.8128 82.1607 65.802 84.8525C67.0238 88.231 67.5731 91.7517 68.6996 95.152C69.1844 96.7687 69.8374 98.4101 70.084 100.079C70.1933 100.741 69.857 101.228 69.5291 101.772C68.2204 103.753 66.7548 105.599 65.0818 107.301C63.9468 108.447 62.8959 109.883 61.3519 110.482C59.9227 111.059 58.4374 111.527 56.9494 111.932C53.5557 112.794 50.3134 113.792 46.7964 114.107C44.1146 114.331 41.4664 114.791 38.8378 115.354C36.226 115.956 33.7347 117.026 31.1285 117.65C30.5008 117.734 29.859 117.97 29.4135 117.373C28.7661 116.572 28.9259 115.185 29.0828 114.241C29.4219 112.233 30.6521 110.687 32.1878 109.385C34.1747 107.79 36.5006 106.631 39.0564 106.231C39.9867 106.021 41.3122 105.996 41.9904 105.276C42.7302 104.554 43.4364 103.739 44.0557 102.918C44.3304 102.486 44.6919 102.106 44.5013 101.567C44.0501 100.21 42.9937 98.9928 41.8951 98.0764C40.1577 96.8016 37.728 96.3256 35.5926 96.3365C32.3447 96.3529 29.279 96.3119 26.1347 97.2256C24.9829 97.5347 23.7191 98.0982 22.5197 98.0764C22.1105 97.77 21.9004 97.3295 21.8303 96.8371C21.6566 95.5514 21.8976 94.1426 21.6538 92.8623C21.4184 91.7134 20.6225 90.6985 20.303 89.6453C20.0844 88.8492 20.6869 88.0121 21.3483 87.6018C22.1554 87.093 23.1194 86.5924 24.089 86.5075C25.0222 86.565 25.7032 87.4787 26.3085 88.0832C25.7816 88.7425 25.252 89.3963 24.7111 90.0447C25.4706 89.938 26.3421 89.9134 27.0455 89.5933C27.7096 89.3061 27.9086 88.4881 27.7741 87.848C27.5247 87.0465 26.8241 86.3297 26.4654 85.5774L26.5186 85.2546C27.4322 84.6501 28.5195 84.2698 29.5031 83.7856C32.2326 82.5136 34.6567 80.8859 37.1255 79.1953C39.6392 77.502 40.253 74.7062 42.9572 73.1387C45.8801 71.5767 48.9234 70.436 52.0649 69.4101C54.402 68.6578 56.543 67.6949 58.9026 67.4022C59.4238 68.2721 59.7825 68.9806 60.8586 69.2487C60.9623 68.1134 60.9735 66.7812 61.4471 65.728C62.0945 64.3383 63.4032 63.2468 64.894 62.7982C67.2312 62.1006 69.9607 62.7161 71.9111 64.114ZM38.5743 81.1266C38.8546 81.5288 39.1236 81.9774 39.4879 82.3112C40.1044 82.3631 40.7434 82.2482 41.3571 82.3194C42.2118 82.5957 43.0553 83.4601 43.9829 83.4054C45.4065 83.4136 46.5582 82.2564 46.8329 80.9488C46.9085 80.0816 46.477 79.1652 46.4377 78.2953C46.6451 77.7974 47.0122 77.3515 47.3149 76.9029C45.8128 77.647 44.3696 78.4731 43.0749 79.5318C42.2594 80.1555 41.4524 80.9707 40.5052 81.3838C39.9027 81.5178 39.174 81.2251 38.5743 81.1266Z" fill="black"/>
<path d="M47.3149 76.903C47.0122 77.3516 46.6451 77.7975 46.4377 78.2954C46.477 79.1653 46.9085 80.0817 46.8329 80.9489C46.5582 82.2565 45.4065 83.4137 43.9829 83.4055C43.0553 83.4602 42.2118 82.5957 41.3571 82.3194C40.7434 82.2483 40.1044 82.3632 39.4879 82.3112C39.1236 81.9775 38.8546 81.5288 38.5743 81.1267C39.174 81.2252 39.9027 81.5179 40.5052 81.3839C41.4524 80.9708 42.2594 80.1556 43.0749 79.5319C44.3696 78.4732 45.8128 77.647 47.3149 76.903ZM43.4925 80.9407C43.145 80.9325 42.8003 80.9215 42.4528 80.9106C42.6518 81.4003 42.7246 82.0404 43.2935 82.2565C44.2743 82.7188 45.555 81.9994 45.5914 80.9161C45.6587 80.2623 45.3897 79.3595 44.577 79.3568C43.7083 79.5565 43.7335 80.2595 43.4925 80.9407Z" fill="#535B2D"/>
<path d="M44.577 79.3568C45.3897 79.3595 45.6587 80.2623 45.5914 80.9161C45.555 81.9994 44.2743 82.7189 43.2935 82.2565C42.7246 82.0404 42.6518 81.4003 42.4528 80.9106C42.8003 80.9216 43.145 80.9325 43.4925 80.9407C43.7335 80.2596 43.7082 79.5565 44.577 79.3568Z" fill="#020304"/>
<path d="M25.5126 98.7767C24.8793 100.257 24.1535 101.701 23.4333 103.145C23.181 102.793 22.9092 102.431 22.699 102.054C22.6486 101.293 22.6374 100.53 22.5869 99.7698C23.5285 99.3239 24.4729 98.9436 25.5126 98.7767Z" fill="#FA330C"/>
<path d="M39.5187 99.0118C37.5235 98.8176 35.5254 99.0392 33.5918 99.5425C35.4777 98.7383 37.5207 98.3443 39.5187 99.0118Z" fill="#AA2F10"/>
<path d="M39.5187 99.012C40.6789 99.4387 42.3631 100.426 42.5425 101.739C42.2678 102.393 41.7942 102.979 41.3515 103.534C40.3846 104.297 39.3674 104.5 38.1428 104.491L37.7476 104.396C37.7392 103.884 37.4338 103.575 36.9882 103.353C36.5342 103.093 36.0662 102.809 35.5842 102.607C34.5922 102.136 33.7823 102.213 32.7707 102.571C30.6493 103.435 29.2005 105.252 26.9137 105.917C26.2356 105.933 25.563 105.911 24.8876 105.884C25.266 105.58 25.6443 105.276 26.0366 104.989C28.6484 103.238 30.5036 100.85 33.5917 99.5427C35.5254 99.0394 37.5234 98.8178 39.5187 99.012Z" fill="#FD3005"/>
<path d="M22.587 99.7697C22.6374 100.53 22.6486 101.293 22.6991 102.054C22.3235 101.277 22.416 100.579 22.587 99.7697Z" fill="#8D2A10"/>
<path d="M35.5843 102.607C34.6511 102.535 33.7067 102.524 32.7707 102.571C33.7823 102.213 34.5922 102.136 35.5843 102.607Z" fill="#AF250D"/>
<path d="M36.9882 103.353C37.4338 103.575 37.7393 103.884 37.7477 104.396C37.2208 104.294 36.991 103.846 36.9882 103.353Z" fill="#96210B"/>
<path d="M41.3515 103.534C41.0236 103.909 40.6537 104.409 40.1773 104.606C39.5187 104.847 38.8013 104.631 38.1428 104.491C39.3674 104.499 40.3847 104.297 41.3515 103.534Z" fill="#8C3111"/>
<path d="M26.0366 104.989C25.6443 105.276 25.266 105.58 24.8876 105.884C25.563 105.911 26.2356 105.933 26.9137 105.917C26.4037 106.083 25.832 106.294 25.2884 106.289C24.9549 106.231 24.7531 105.725 24.5626 105.479C25.0558 105.318 25.5518 105.164 26.0366 104.989Z" fill="#963114"/>
<path d="M25.4565 110.121C25.7508 110.151 26.0422 110.19 26.3309 110.236C27.3005 110.616 28.1384 110.789 29.1837 110.83C28.8082 111.678 28.3906 112.498 27.931 113.308C27.2809 113.029 26.6391 112.876 26.188 112.31C25.6527 111.686 25.5238 110.909 25.4565 110.121Z" fill="#FB340C"/>
<path d="M26.3309 110.236C27.3145 110.326 28.2617 110.477 29.1837 110.83C28.1384 110.789 27.3005 110.616 26.3309 110.236Z" fill="#8A2B0E"/>
<path d="M43.7139 135.343C43.0049 135.464 42.4444 135.453 41.741 135.308C42.4752 134.829 42.9797 134.966 43.7139 135.343Z" fill="#9C250C"/>
<path d="M41.741 135.308C42.4444 135.453 43.0049 135.464 43.7139 135.343C45.1739 135.879 46.5442 136.473 47.6203 137.617C48.9655 139.069 50.3218 140.705 50.4451 142.743C49.8174 142.749 49.1924 142.751 48.5675 142.743C47.5082 142.604 46.463 142.377 45.4009 142.256C44.818 141.102 44.3892 139.811 43.683 138.727C43.1646 137.926 42.4612 137.379 41.755 136.747C41.4103 136.424 41.0824 136.115 40.6229 135.948C40.9816 135.713 41.3571 135.505 41.741 135.308Z" fill="#FD3005"/>
<path d="M40.6229 135.948C41.0825 136.115 41.4103 136.424 41.755 136.747C41.2814 136.848 40.295 136.552 40.6229 135.948Z" fill="#8F220B"/>
<path d="M31.7366 137.816C30.6745 137.778 29.6068 137.773 28.5447 137.838C29.6096 137.483 30.6577 137.603 31.7366 137.816Z" fill="#A8240C"/>
<path d="M28.5448 137.838C29.6068 137.772 30.6745 137.778 31.7366 137.816C33.9169 138.254 36.7136 139.162 38.0055 141.055C37.7785 141.37 37.5459 141.682 37.3217 141.999C36.4614 141.966 36.2792 142.385 36.1728 143.129C35.8729 143.629 35.5702 144.182 35.1611 144.603C34.7688 144.71 34.567 144.628 34.27 144.371C33.1939 143.419 32.4232 142.16 31.3807 141.159C30.1729 139.939 28.7465 139.304 27.3089 138.369C27.7125 138.183 28.1244 137.983 28.5448 137.838Z" fill="#FD3006"/>
<path d="M37.3217 141.999C37.0302 142.508 36.6659 142.817 36.1727 143.129C36.2792 142.385 36.4614 141.966 37.3217 141.999Z" fill="#9F200A"/>
<path d="M45.4009 142.256C46.463 142.377 47.5082 142.604 48.5675 142.743C47.5615 142.688 46.2108 142.946 45.4009 142.256Z" fill="#893312"/>
<path d="M42.5453 143.304C44.8348 143.73 47.5026 143.594 49.7613 144.308C50.8094 144.598 51.1541 145.763 51.58 146.619C52.0564 147.62 52.5665 149.002 53.6902 149.456C55.31 150.091 57.2576 149.97 58.8746 149.382C62.0104 148.299 65.177 147.3 68.3353 146.286C70.4819 145.604 71.7149 144.146 73.43 142.839C74.3183 143.744 75.2459 144.732 76.3052 145.443C77.0786 145.976 77.8885 146.411 78.4714 147.158C79.2056 148.107 79.7409 149.158 80.562 150.052C81.8819 151.483 83.4231 152.755 84.8664 154.063C85.9284 155.026 86.2115 156.229 86.6571 157.521C87.3212 159.482 87.9545 161.474 88.8009 163.369C89.5883 165.158 90.7261 166.759 91.4603 168.575C89.1203 168.783 86.9709 168.567 84.729 167.899C83.1485 167.429 81.6549 166.854 79.9819 166.75C79.9903 167.949 80.6012 168.509 81.4167 169.27C78.9226 169.204 76.4509 169.368 73.9624 169.486C71.572 169.615 69.1844 169.489 66.7968 169.688C64.8968 169.85 62.9968 169.806 61.094 169.792C54.416 169.839 47.752 168.326 41.727 165.533C39.7709 164.65 38.3978 163.23 36.778 161.908C35.9485 161.219 34.8892 160.42 34.6538 159.321C34.5053 158.224 34.9173 157.047 34.9537 155.937C35.1414 153.86 34.4212 151.91 35.1162 150.003C35.601 148.685 36.055 147.377 36.3717 146.006C36.7024 144.699 37.2572 143.525 38.5967 142.967C39.9447 142.319 41.1917 143.052 42.5453 143.304Z" fill="black"/>
<path d="M31.4928 145.416C32.6306 145.632 33.6563 146.094 34.6791 146.608C34.0822 148.17 33.6871 149.809 33.1995 151.409C32.9753 151.486 32.7483 151.565 32.5241 151.642C31.0921 150.843 29.8142 149.815 28.3766 149.018C26.9222 148.14 25.3445 147.552 23.8088 146.838C23.4473 146.751 23.7584 146.327 23.9853 146.261C24.7224 145.864 25.6191 145.684 26.4402 145.531C28.1468 145.249 29.775 145.044 31.4928 145.416Z" fill="#FD3004"/>
<path d="M34.6791 146.609C34.6034 148.384 33.7235 149.995 33.4629 151.768C33.149 151.73 32.8351 151.694 32.5241 151.642C32.7483 151.565 32.9753 151.486 33.1994 151.409C33.6871 149.809 34.0822 148.171 34.6791 146.609Z" fill="#A43314"/>
<path d="M31.7282 153.04C32.4989 153.13 33.2107 153.308 33.5638 154.055C34.0402 155.253 33.8552 156.774 33.5021 157.991C32.8015 158.019 32.1065 158.068 31.4059 158.09C30.4896 157.709 29.6208 157.236 28.6877 156.891C26.9922 156.208 25.2155 155.816 23.5005 155.187C24.0582 154.736 24.6215 154.334 25.322 154.12C27.3089 153.45 29.6152 152.802 31.7282 153.04Z" fill="#FD3005"/>
<path d="M178.801 157.151C179.863 157.187 180.858 157.28 181.618 158.09C182.747 159.296 183.358 161.093 183.963 162.595C185 165.473 185.821 168.28 187.595 170.859C188.195 171.691 188.764 172.539 189.327 173.395C188.764 174.369 188.169 175.313 187.474 176.202C186.802 175.688 186.138 175.165 185.468 174.646C184.899 175.07 184.339 175.422 183.986 176.052C183.013 177.649 182.68 179.608 181.954 181.334C181.41 180.806 180.869 180.273 180.334 179.736C179.838 180.133 179.356 180.511 179.02 181.055C177.453 183.342 176.795 185.747 175.786 188.282C174.6 191.601 172.981 194.588 171.537 197.813C170.467 200.226 169.203 202.527 168.242 204.983C167.796 206.017 167.418 207.251 166.667 208.113C165.809 209.005 164.45 209.524 163.343 210.077C160.474 211.499 157.442 212.495 154.342 213.313C151.697 214.117 148.99 214.416 146.241 214.667C145.52 214.7 144.68 214.785 143.988 214.547C143.62 214.333 143.601 213.748 143.511 213.382C143.29 212.093 143.178 210.922 142.32 209.855C141.572 208.805 140.022 208.581 138.834 208.236C138.952 207.185 139.324 205.891 138.666 204.956C138.061 204.1 137.063 203.449 136.225 202.819C136.559 202.291 136.85 201.777 137.357 201.386C138.288 200.653 139.182 199.876 140.126 199.159C141.084 198.437 142.343 198.311 143.494 198.087C145.504 197.748 147.465 197.176 149.332 196.372C151.05 195.628 152.566 194.301 153.403 192.646C154.883 189.749 154.807 186.937 155.208 183.81C155.469 181.731 155.455 179.643 155.805 177.573C156.183 175.157 156.405 172.722 156.755 170.301C157.047 167.976 158.366 165.711 159.577 163.717C160.244 162.727 160.978 161.446 162.245 161.151C165.442 160.36 168.819 160.188 171.966 159.214C171.874 158.67 171.776 158.131 171.678 157.589C174.048 157.023 176.383 157.149 178.801 157.151Z" fill="black"/>
<path d="M33.5021 157.991C32.7174 158.259 32.2046 158.517 31.4059 158.09C32.1065 158.068 32.8015 158.019 33.5021 157.991Z" fill="#892B0F"/>
<path d="M87.0998 196.254C88.1283 196.311 88.7644 196.503 89.5743 197.135C89.2296 197.348 88.8821 197.559 88.5402 197.778C88.7448 197.515 88.9382 197.241 89.1315 196.971C86.3348 196.246 83.4876 196.243 80.6348 196.618C82.6693 196.024 84.9841 196.169 87.0998 196.254Z" fill="#963413"/>
<path d="M89.1315 196.971C88.9382 197.242 88.7448 197.515 88.5402 197.778C87.3857 198.511 86.5282 199.504 85.6706 200.538C84.942 200.275 84.2218 199.996 83.5016 199.709C81.383 198.722 79.3065 198.765 77.0702 198.3L76.8348 198.226C78.0062 197.417 79.2392 196.924 80.6348 196.618C83.4876 196.243 86.3348 196.246 89.1315 196.971Z" fill="#FD3105"/>
<path d="M77.0702 198.3C79.3065 198.765 81.383 198.722 83.5016 199.709C81.4307 199.26 78.9506 199.285 77.0702 198.3Z" fill="#8B290E"/>
<path d="M137.615 198.817C137.111 199.504 136.573 200.158 136.004 200.795C135.401 201.03 134.984 201.271 135.113 201.985C134.622 202.368 134.174 202.904 133.602 203.164C132.739 203.476 131.8 203.613 130.903 203.821C128.824 203.993 126.725 204.174 124.637 204.113L124.357 204.083C125.643 202.426 127.762 201.307 129.659 200.437C132.142 199.425 134.953 199.066 137.615 198.817Z" fill="#FD3006"/>
<path d="M136.004 200.795C135.808 201.383 135.628 201.627 135.113 201.985C134.984 201.271 135.401 201.03 136.004 200.795Z" fill="#9E260C"/>
<path d="M78.973 201.419C79.7829 201.441 80.5928 201.676 81.3802 201.854C79.7381 201.723 78.0819 201.714 76.4341 201.802C77.2832 201.616 78.0959 201.402 78.973 201.419Z" fill="#952F10"/>
<path d="M81.3803 201.854L81.6801 201.917C80.4303 203.156 79.0823 204.45 77.6083 205.424C74.2006 205.73 70.7678 205.894 67.3461 205.777C67.3853 205.569 67.4274 205.364 67.4694 205.156C68.3073 204.663 69.1985 204.258 70.056 203.801C71.9952 202.789 74.3015 202.278 76.4341 201.802C78.0819 201.714 79.7381 201.722 81.3803 201.854Z" fill="#FD3005"/>
<path d="M193.536 202.538C192.684 203.552 191.748 204.461 190.969 205.517C190.308 206.154 189.714 206.775 188.783 207.021C186.023 207.762 183.061 207.886 180.219 207.648L179.74 207.47C182.066 205.366 184.714 203.706 187.872 203.112C189.859 202.781 191.538 202.111 193.536 202.538Z" fill="#FD3105"/>
<path d="M130.903 203.821C128.827 204.576 126.784 204.474 124.637 204.113C126.725 204.174 128.824 203.993 130.903 203.821Z" fill="#99280E"/>
<path d="M136.063 205.035C136.786 205.448 137.464 206.409 137.22 207.251C136.861 208.291 135.99 209.139 134.911 209.459C133.061 210.08 130.853 209.869 128.908 209.896C126.456 209.855 123.951 210.039 121.518 209.735C122.558 208.449 123.914 207.708 125.318 206.863C127.333 205.667 129.589 205.257 131.873 204.792C133.243 204.524 134.779 204.384 136.063 205.035Z" fill="#FD3004"/>
<path d="M67.4694 205.156C67.4273 205.364 67.3853 205.569 67.3461 205.777C70.7677 205.894 74.2006 205.73 77.6083 205.424C75.8372 206.209 73.657 205.834 71.7346 205.938C70.1036 206.031 68.5175 206.146 66.8949 205.87C67.0855 205.632 67.2732 205.391 67.4694 205.156Z" fill="#A43413"/>
<path d="M190.969 205.517C190.692 205.935 190.453 206.507 190.027 206.794C189.411 207.194 188.699 207.473 188.026 207.765C189.075 207.836 190.086 207.899 191.112 208.146C189.167 207.899 187.416 208.332 185.532 208.706C185.698 208.457 185.86 208.211 186.023 207.962C184.117 207.787 182.066 208.129 180.219 207.648C183.061 207.886 186.023 207.763 188.783 207.021C189.713 206.775 190.308 206.154 190.969 205.517Z" fill="#52250E"/>
<path d="M80.0547 208.017C80.5872 208.43 80.5676 208.983 80.6264 209.585C80.335 209.09 80.0743 208.504 79.6568 208.096C79.0095 207.722 78.0342 207.837 77.3084 207.875C78.1379 207.7 79.3457 207.418 80.0547 208.017Z" fill="#923111"/>
<path d="M77.3084 207.875C78.0342 207.836 79.0095 207.722 79.6568 208.096C80.0744 208.504 80.335 209.089 80.6264 209.584C80.0407 211.1 79.3261 212.484 77.6615 213.061C76.3949 213.176 75.1787 213.354 73.9456 213.65C71.6533 213.992 69.5067 214.599 67.1976 214.716C68.652 212.788 70.5183 211.067 72.6818 209.918C74.153 209.133 75.6915 208.332 77.3084 207.875Z" fill="#FD3005"/>
<path d="M191.112 208.146C191.44 208.277 191.745 208.457 192.023 208.674C192.398 209.617 192.852 210.542 192.303 211.527C191.597 212.87 189.694 213.163 188.31 213.31C184.532 213.548 180.721 213.283 176.938 213.379C177.994 211.85 179.541 211.1 181.13 210.181C182.5 209.407 183.994 209.01 185.532 208.706C187.416 208.332 189.167 207.899 191.112 208.146Z" fill="#FD3004"/>
<path d="M192.023 208.674C193.267 209.606 193.079 211.603 191.93 212.525C190.93 213.387 189.599 213.513 188.321 213.562C185.328 213.614 182.352 213.475 179.348 213.636C178.524 213.688 177.733 213.576 176.938 213.379C180.721 213.283 184.532 213.548 188.31 213.31C189.694 213.163 191.597 212.87 192.303 211.527C192.852 210.542 192.398 209.617 192.023 208.674Z" fill="#883412"/>
<path d="M136.842 210.126C138.175 209.853 139.683 209.951 140.813 210.758C141.838 211.502 142.118 212.938 141.947 214.106C141.849 214.648 141.468 214.881 140.93 214.908C139.081 215.037 137.209 214.919 135.354 214.952C132.618 214.908 129.872 215.045 127.14 214.886C127.714 214.265 128.317 213.68 129.057 213.242C131.45 211.784 134.087 210.723 136.842 210.126Z" fill="#FE3003"/>
<path d="M77.6615 213.061C76.4621 213.581 75.2319 213.617 73.9456 213.649C75.1787 213.354 76.3949 213.176 77.6615 213.061Z" fill="#952C0F"/>
<path d="M194.775 213.335C195.461 213.398 195.977 213.74 196.47 214.18C195.192 213.797 193.945 213.499 192.603 213.724C191.347 213.942 190.1 214.227 188.848 214.462C190.652 213.797 192.827 213.094 194.775 213.335Z" fill="#912B0E"/>
<path d="M192.603 213.724C193.945 213.499 195.192 213.797 196.47 214.18C197.044 214.711 197.56 215.428 197.711 216.196C197.922 217.269 197.064 218.494 195.884 218.459C193.928 218.535 191.961 218.442 189.999 218.47C187.48 218.415 184.899 218.653 182.413 218.33C184.252 216.653 186.454 215.247 188.848 214.462C190.1 214.227 191.347 213.942 192.603 213.724Z" fill="#FD3005"/>
<path d="M83.8155 214.44C84.7207 214.903 85.1971 215.926 84.9757 216.899C84.7711 217.425 84.3396 217.794 83.8491 218.065C80.9879 218.746 78.1127 219.476 75.3552 220.494C74.2567 220.847 73.1498 221.14 71.9952 221.276C73.1105 219.178 75.0302 217.635 76.9974 216.328C78.0931 215.647 79.1944 214.935 80.3742 214.399C81.4868 213.909 82.7366 213.8 83.8155 214.44Z" fill="#FD3004"/>
<path d="M83.8491 218.065C82.4171 218.866 80.6544 219.104 79.0599 219.665C77.8549 220.086 76.6219 220.316 75.3552 220.494C78.1127 219.476 80.9879 218.746 83.8491 218.065Z" fill="#9B280D"/>
</svg>
