<svg width="268" height="299" viewBox="0 0 268 299" fill="none" xmlns="http://www.w3.org/2000/svg">
<g clip-path="url(#clip0_2467_5797)">
<path d="M0 0H268V116.29C267.955 118.12 268.031 119.912 267.843 121.734C267.695 123.107 267.871 124.469 267.65 125.837C267.457 127.117 267.661 128.389 267.401 129.661C266.342 144.023 263.85 158.339 259.772 172.186C253.401 193.972 242.964 214.574 228.786 232.528C219.343 244.537 208.337 255.299 196.203 264.712C177.409 279.276 156.445 290.377 134.185 299H133.81C124.459 295.334 115.274 291.305 106.382 286.673C83.8193 274.992 63.0486 259.821 46.2741 240.94C35.7445 229.158 26.8252 215.994 19.8466 201.917C9.06215 180.264 2.93484 156.607 0.842926 132.657C0.618892 131.492 0.764514 130.315 0.520878 129.155C0.378056 128.053 0.520878 126.94 0.347252 125.834C0.128819 124.467 0.305246 123.104 0.151223 121.734C-0.0364054 119.887 0.0448067 118.079 0 116.208V0ZM1.93789 1.89576C1.82867 3.18149 1.90428 4.45081 1.88468 5.74474C1.89028 41.9448 1.87068 78.1476 1.89588 114.348C2.05551 122.576 2.47837 130.794 3.48652 138.968C4.65429 148.857 6.53337 158.683 9.17977 168.299C15.1895 190.375 25.355 211.308 39.4131 229.584C47.4727 240.095 56.7337 249.688 66.9216 258.253C86.6561 274.867 109.454 287.415 133.597 296.82C134.193 297.104 135.011 296.546 135.599 296.363C157.039 287.891 177.334 276.976 195.424 262.841C215.081 247.541 231.6 228.569 243.37 206.841C252.612 189.894 258.896 171.521 262.422 152.646C264.973 139.181 266.045 125.569 266.115 111.886C266.118 75.4065 266.113 38.9247 266.118 2.44562C266.155 2.19668 266.048 2.00245 265.802 1.86294C265.046 1.80823 264.278 1.84926 263.519 1.84652C177.639 1.84379 91.7613 1.84652 5.88088 1.84652C4.55628 1.86294 3.25689 1.79455 1.93789 1.89576Z" fill="#885500"/>
<path d="M1.93788 1.89581C3.25687 1.79459 4.55627 1.86298 5.88087 1.84657C91.7613 1.84657 177.639 1.84383 263.519 1.84657C264.278 1.8493 265.046 1.80827 265.802 1.86298C266.048 2.00249 266.155 2.19672 266.118 2.44566C266.113 38.9248 266.118 75.4066 266.115 111.886C266.045 125.569 264.973 139.181 262.422 152.646C258.896 171.522 252.612 189.894 243.37 206.841C231.6 228.57 215.081 247.541 195.424 262.841C177.334 276.976 157.039 287.891 135.599 296.363C135.011 296.546 134.193 297.104 133.597 296.82C109.454 287.415 86.6561 274.867 66.9216 258.253C56.7337 249.688 47.4727 240.095 39.4131 229.584C25.355 211.308 15.1895 190.375 9.17976 168.299C6.53336 158.683 4.65428 148.857 3.48651 138.968C2.47836 130.794 2.0555 122.576 1.89587 114.348C1.87067 78.1476 1.89027 41.9448 1.88467 5.74478C1.90427 4.45085 1.82866 3.18153 1.93788 1.89581ZM260.338 7.47641C176.827 7.4682 93.3127 7.47641 9.80145 7.47094C9.09575 7.47367 8.38444 7.44358 7.68154 7.49556C7.62553 8.2752 7.66473 9.06579 7.65913 9.84817C7.65633 42.8585 7.65913 75.8662 7.65913 108.877C7.61433 115.45 7.77115 122.016 8.25842 128.573C10.0647 153.748 16.3292 178.454 28.007 201.03C37.8392 220.1 51.4269 237.228 67.7113 251.455C86.6225 268.085 108.777 280.726 132.222 290.224C132.852 290.421 133.754 291.086 134.4 290.796C151.503 283.943 167.795 275.567 182.867 265.079C195.36 256.393 206.945 246.258 216.904 234.859C230.553 219.334 241.208 201.372 248.347 182.138C256.658 159.846 260.268 136.383 260.338 112.706C260.346 77.6306 260.344 42.5521 260.338 7.47641Z" fill="#FFCC00"/>
<path d="M7.68157 7.49555C8.38447 7.44358 9.09578 7.47367 9.80149 7.47093C93.3128 7.4764 176.827 7.4682 260.338 7.4764C260.344 42.5521 260.346 77.6306 260.338 112.706C260.268 136.383 256.658 159.846 248.347 182.138C241.208 201.372 230.553 219.334 216.904 234.859C206.945 246.258 195.36 256.393 182.867 265.079C167.795 275.567 151.503 283.943 134.4 290.796C133.754 291.086 132.852 290.421 132.222 290.224C108.777 280.726 86.6226 268.085 67.7113 251.456C51.4269 237.228 37.8393 220.1 28.007 201.03C16.3293 178.454 10.0647 153.748 8.25846 128.573C7.77118 122.016 7.61436 115.45 7.65917 108.877C7.65917 75.8662 7.65637 42.8585 7.65917 9.84816C7.66477 9.06578 7.62556 8.2752 7.68157 7.49555ZM10.0815 127.167C10.1235 127.662 10.1627 128.157 10.1935 128.655C12.1118 155.625 19.3481 182.223 32.8265 205.922C43.863 225.421 58.918 242.527 76.6867 256.462C77.1095 256.787 77.524 257.118 77.9413 257.449C94.7746 270.509 113.63 280.707 133.468 288.709C134.218 289.062 135.204 288.405 135.918 288.153C155.236 280.245 173.64 270.197 190.064 257.452C190.482 257.124 190.899 256.793 191.319 256.467C208.06 243.317 222.406 227.388 233.236 209.243C243.491 192.134 250.455 173.398 254.373 153.965C256.051 145.621 257.213 137.165 257.801 128.685C257.826 128.193 257.868 127.703 257.907 127.213C258.369 121.381 258.434 115.543 258.409 109.697C258.406 76.2574 258.417 42.812 258.403 9.3749C248.179 9.36396 237.954 9.35849 227.73 9.37764C227.092 9.37764 226.456 9.37217 225.817 9.37217C164.609 9.3667 103.397 9.3667 42.1855 9.37217C41.5526 9.37217 40.9169 9.37217 40.284 9.37217C30.0905 9.37764 19.7962 9.3366 9.61666 9.39132C9.55505 10.1792 9.59425 10.9752 9.59145 11.7631C9.59145 45.047 9.58865 78.3282 9.59145 111.612C9.56625 116.802 9.69227 121.991 10.0815 127.167Z" fill="#885500"/>
<path d="M9.61661 9.39124C19.7961 9.33653 30.0905 9.37756 40.284 9.37209C70.3549 51.1965 100.476 92.9963 130.561 134.81C131.158 135.628 131.765 136.438 132.297 137.299C128.206 137.157 124.129 136.659 120.045 136.361C83.3908 133.297 46.7361 130.225 10.0815 127.167C9.69222 121.991 9.5662 116.801 9.5914 111.612C9.5886 78.3281 9.5914 45.0469 9.5914 11.763C9.5942 10.9751 9.555 10.1791 9.61661 9.39124Z" fill="#1A1A1A"/>
<path d="M40.284 9.37207C40.9169 9.37207 41.5526 9.37207 42.1855 9.37207C42.4459 9.76326 42.7092 10.1517 42.978 10.5374C72.8108 51.9789 102.641 93.4203 132.471 134.862C133.009 135.579 133.367 136.298 134.084 136.851C163.794 95.6334 193.472 54.3506 223.168 13.1171C224.056 11.8697 224.977 10.6496 225.817 9.37207C226.456 9.37207 227.091 9.37754 227.73 9.37754C197.555 51.295 167.381 93.2124 137.209 135.13C136.669 135.855 136.137 136.582 135.691 137.37C140.97 137.031 146.229 136.47 151.505 136.082C181.375 133.573 211.244 131.084 241.116 128.578C246.717 128.16 252.301 127.571 257.907 127.213C257.868 127.703 257.826 128.192 257.801 128.685C223.955 131.522 190.109 134.35 156.263 137.184C151.407 137.537 146.56 138.054 141.701 138.385C139.55 138.615 137.383 138.703 135.238 138.976C135.537 139.759 135.893 140.516 136.268 141.266C146.453 162.592 156.644 183.919 166.826 205.249C174.998 222.313 183.114 239.416 191.319 256.467C190.899 256.793 190.482 257.124 190.064 257.452C171.556 218.653 152.928 179.706 134.406 140.894C134.291 140.637 134.126 140.442 133.91 140.311C130.516 147.246 127.234 154.274 123.882 161.233C108.578 193.302 93.2287 225.374 77.9412 257.449C77.524 257.118 77.1095 256.787 76.6866 256.462C86.194 236.675 95.6175 216.839 105.097 197.039C113.971 178.445 122.854 159.857 131.734 141.266C132.11 140.514 132.465 139.753 132.771 138.971C128.015 138.445 123.227 138.177 118.463 137.734C107.92 136.82 97.3033 136 86.7653 135.056C81.7358 134.73 76.7202 134.164 71.6879 133.83C68.1426 133.53 64.5972 133.215 61.0491 132.914C56.0027 132.575 50.9732 132.011 45.9268 131.678C34.0643 130.633 22.0449 129.697 10.1935 128.655C10.1627 128.157 10.1235 127.662 10.0815 127.167C46.7362 130.225 83.3908 133.297 120.046 136.361C124.129 136.659 128.206 137.157 132.297 137.299C131.765 136.438 131.158 135.628 130.561 134.81C100.476 92.9963 70.3549 51.1965 40.284 9.37207Z" fill="#770000"/>
<path d="M42.1855 9.37215C103.397 9.36667 164.609 9.36667 225.817 9.37215C224.977 10.6497 224.056 11.8697 223.168 13.1172C193.472 54.3507 163.794 95.6335 134.084 136.851C133.367 136.298 133.009 135.579 132.471 134.862C102.641 93.4204 72.8109 51.979 42.978 10.5375C42.7092 10.1518 42.4459 9.76333 42.1855 9.37215Z" fill="#CC0000"/>
<path d="M227.73 9.37754C237.954 9.35839 248.179 9.36387 258.403 9.37481C258.417 42.8119 258.406 76.2573 258.409 109.697C258.434 115.543 258.369 121.381 257.907 127.213C252.301 127.571 246.717 128.16 241.116 128.578C211.244 131.084 181.375 133.573 151.505 136.082C146.229 136.47 140.97 137.031 135.691 137.37C136.137 136.582 136.669 135.855 137.209 135.13C167.381 93.2124 197.556 51.295 227.73 9.37754Z" fill="#1A1A1A"/>
<path d="M10.1935 128.655C22.0449 129.697 34.0643 130.633 45.9269 131.678C50.9732 132.011 56.0028 132.575 61.0491 132.914C64.5973 133.215 68.1426 133.53 71.6879 133.831C76.7203 134.164 81.7358 134.731 86.7654 135.056C97.3033 136 107.92 136.821 118.463 137.734C123.227 138.177 128.016 138.445 132.771 138.971C132.465 139.753 132.11 140.514 131.734 141.266C122.854 159.857 113.971 178.445 105.097 197.039C95.6175 216.839 86.1941 236.675 76.6867 256.462C58.918 242.526 43.863 225.421 32.8265 205.922C19.3481 182.223 12.1118 155.625 10.1935 128.655Z" fill="#CC0000"/>
<path d="M257.801 128.685C257.213 137.165 256.051 145.621 254.373 153.965C250.455 173.398 243.491 192.134 233.236 209.243C222.406 227.388 208.06 243.317 191.319 256.467C183.114 239.416 174.998 222.313 166.826 205.249C156.644 183.919 146.453 162.593 136.268 141.266C135.893 140.516 135.537 139.759 135.238 138.976C137.383 138.703 139.55 138.615 141.701 138.385C146.56 138.054 151.407 137.537 156.263 137.184C190.109 134.35 223.955 131.522 257.801 128.685Z" fill="#CC0000"/>
<path d="M133.91 140.311C134.126 140.442 134.291 140.637 134.406 140.894C152.928 179.706 171.556 218.653 190.064 257.452C173.64 270.197 155.236 280.245 135.918 288.153C135.204 288.405 134.218 289.062 133.468 288.709C113.63 280.707 94.7745 270.509 77.9412 257.449C93.2287 225.374 108.578 193.302 123.882 161.233C127.234 154.274 130.516 147.246 133.91 140.311Z" fill="#1A1A1A"/>
</g>
<defs>
<clipPath id="clip0_2467_5797">
<rect width="268" height="299" fill="white"/>
</clipPath>
</defs>
</svg>
