<svg width="268" height="299" viewBox="0 0 268 299" fill="none" xmlns="http://www.w3.org/2000/svg">
<path d="M0 0H268V135.045C266.373 155.447 261.136 175.543 252.614 194.235C239.413 223.287 218.564 248.813 193.12 268.542C176.824 281.156 158.414 291.562 138.836 298.456C138.265 298.664 137.691 298.855 137.1 299H129.22C105.895 291.056 84.1161 278.453 65.387 262.753C57.2097 255.898 49.587 248.422 42.656 240.357C25.8367 220.932 13.0724 198.256 5.67085 173.844C3.18127 165.678 1.28259 157.335 0 148.909V0ZM133.079 290.629C134.188 290.563 135.33 290.014 136.372 289.647C160.316 281.082 182.122 267.204 200.642 250.159C204.066 246.865 207.559 243.571 210.74 240.056C212.428 238.407 213.885 236.571 215.47 234.829C226.125 222.584 235.204 208.994 242.25 194.465C252.049 174.367 257.862 152.318 258.98 130.075C259.226 127.033 259.184 123.963 259.218 120.913C259.218 84.8033 259.218 48.6935 259.218 12.5837C259.223 11.1776 259.24 9.77426 259.167 8.37091C257.255 8.32166 255.35 8.35176 253.438 8.34628C213.375 8.33808 173.307 8.35723 133.244 8.33808C92.4726 8.32166 51.6929 8.33808 10.9216 8.32987C9.75105 8.33534 8.55528 8.25054 7.3875 8.37091C7.05705 9.80709 7.23068 11.3883 7.20547 12.8573C7.20828 48.1464 7.20828 83.4355 7.20547 118.725C7.17467 122.461 7.27829 126.204 7.45751 129.935C7.64514 131.762 7.70955 133.584 7.79076 135.417C8.19402 140.172 8.75971 144.923 9.56063 149.629C9.94988 151.631 10.2859 153.639 10.6612 155.641C13.8033 171.155 19.1493 186.247 26.5172 200.33C34.2323 215.165 44.1346 228.827 55.7087 241.025C58.2935 243.689 60.8727 246.4 63.6871 248.837C64.9389 249.984 66.0871 251.226 67.3865 252.32C84.9787 267.91 105.573 280.529 127.783 288.799C129.533 289.439 131.286 290.101 133.079 290.629Z" fill="black"/>
<path d="M7.38751 8.37088C8.55528 8.25052 9.75106 8.33532 10.9216 8.32985C51.6929 8.33806 92.4726 8.32164 133.244 8.33806C133.112 14.2168 133.224 20.1066 133.188 25.9881C133.207 27.8237 133.126 29.6702 133.247 31.503C124.207 31.5851 115.159 31.5222 106.119 31.5277C105.324 31.5112 104.778 31.7985 104.192 32.2909C102.439 33.7763 100.675 35.2481 98.8968 36.7007C74.1271 57.1848 49.3518 77.6634 24.5849 98.1475C23.1847 99.3511 21.6612 100.117 21.3084 102.076C20.6363 105.725 20.7259 109.555 20.6755 113.253C20.5943 116.635 20.8687 119.997 20.8883 123.375C20.9051 124.516 21.0059 125.651 21.0844 126.789C21.2188 128.849 21.0535 130.89 21.2608 132.947C21.6444 136.544 21.2972 140.1 21.7228 143.698C21.9805 146.288 22.647 148.811 23.5543 151.256C24.6045 154.077 26.4976 156.749 29.0291 158.484C30.9446 159.824 33.6918 160.782 35.0108 162.751C36.3298 164.83 36.9739 167.44 37.6124 169.787C38.7298 173.888 39.8752 177.983 40.9757 182.092C41.6814 184.792 42.4011 187.454 43.5129 190.028C44.5491 192.468 45.7448 194.982 47.8872 196.689C50.0127 198.349 52.7095 199.504 55.2299 200.472C57.0641 201.151 58.848 201.856 60.7971 202.114C63.4715 202.464 66.1879 202.617 68.8763 202.855C70.3549 202.981 71.7999 203.372 73.1189 204.042C75.3789 205.243 77.3335 207.076 79.039 208.936C82.3799 212.771 86.0008 216.358 89.8318 219.728C94.2565 223.629 98.8044 227.401 103.467 231.026C110.322 236.278 117.158 241.547 124.005 246.805C126.246 248.534 128.508 250.233 130.682 252.049C131.443 252.695 132.051 252.949 133.053 253.094C133.233 254.621 133.163 256.122 133.168 257.693C133.168 266.994 133.168 276.295 133.168 285.596C133.163 287.3 133.221 288.933 133.079 290.629C131.286 290.101 129.533 289.439 127.783 288.799C105.573 280.529 84.9787 267.91 67.3865 252.32C66.0871 251.226 64.9389 249.984 63.6871 248.837C60.8727 246.4 58.2935 243.689 55.7087 241.025C44.1346 228.827 34.2323 215.165 26.5172 200.33C19.1493 186.247 13.8033 171.155 10.6612 155.641C10.2859 153.639 9.94989 151.631 9.56063 149.629C8.75971 144.923 8.19403 140.172 7.79077 135.417C7.70956 133.584 7.64515 131.762 7.45752 129.935C7.27829 126.204 7.17468 122.461 7.20548 118.725C7.20828 83.4355 7.20828 48.1464 7.20548 12.8573C7.23069 11.3882 7.05706 9.80707 7.38751 8.37088Z" fill="#4C5220"/>
<path d="M133.244 8.33813C173.307 8.35728 213.375 8.33813 253.438 8.34634C255.351 8.35181 257.255 8.32172 259.167 8.37096C259.24 9.77432 259.223 11.1777 259.218 12.5838C259.218 48.6936 259.218 84.8034 259.218 120.913C259.184 123.963 259.226 127.033 258.98 130.075C257.862 152.318 252.049 174.367 242.25 194.465C235.204 208.994 226.125 222.584 215.47 234.829C213.885 236.571 212.429 238.407 210.74 240.056C207.559 243.572 204.066 246.865 200.642 250.159C182.122 267.204 160.316 281.082 136.372 289.647C135.33 290.014 134.188 290.564 133.079 290.629C133.221 288.933 133.163 287.3 133.168 285.596C133.168 276.295 133.168 266.994 133.168 257.693C133.163 256.122 133.233 254.621 133.053 253.094C133.535 252.632 134.042 252.241 134.613 251.89C137.498 250.145 140.147 247.973 142.897 246.025C150.8 240.19 158.571 234.186 166.205 228.017C168.574 226.05 170.893 224.031 173.245 222.045C175.088 220.562 176.886 219.031 178.664 217.474C180.565 215.682 182.38 213.803 184.346 212.071C185.766 210.821 187.076 209.461 188.496 208.209C190.686 206.346 192.742 204.327 194.797 202.324C197.654 199.539 200.356 196.566 202.75 193.393C203.985 191.779 205.497 190.526 206.912 188.994C210.241 185.377 213.504 181.712 216.475 177.805C222.751 170.001 228.517 161.84 233.712 153.313C235.372 150.715 236.924 148.058 238.509 145.416C239.223 144.201 240.178 142.847 240.433 141.455C240.634 139.816 240.511 138.169 240.027 136.585C238.066 129.489 235.703 122.486 233.448 115.475C229.295 103.124 224.742 90.9092 219.844 78.8234C219.088 76.851 218.298 74.8896 217.458 72.9473C216.458 70.6686 215.825 68.5074 214.081 66.6226C212.443 64.6612 210.239 63.805 207.903 62.8885C204.722 61.7369 201.496 60.7083 198.331 59.5128C194.086 57.8715 189.782 56.386 185.466 54.9362C183.262 54.2578 181.162 53.3495 179.07 52.3976C178.594 52.1678 178.084 51.9188 177.678 51.5741C177.387 51.0735 177.465 50.3568 177.443 49.7933C177.496 46.6008 177.454 43.4057 177.482 40.2132C177.589 37.3573 177.779 34.4411 177.471 31.5961C167.135 31.5879 156.781 31.5934 146.445 31.5633C145.977 31.5989 145.557 31.5277 145.202 31.8834C143.465 33.4509 141.97 35.2864 140.276 36.9004C137.965 39.1272 135.764 41.4607 133.451 43.6847C133.193 39.636 133.588 35.5436 133.247 31.5031C133.126 29.6703 133.207 27.8237 133.188 25.9882C133.224 20.1066 133.112 14.2169 133.244 8.33813Z" fill="#0080FF"/>
<path d="M106.119 31.5277C115.159 31.5222 124.207 31.5851 133.247 31.5031C133.588 35.5435 133.193 39.636 133.451 43.6846C135.764 41.4606 137.965 39.1271 140.276 36.9004C141.97 35.2864 143.465 33.4508 145.202 31.8833C145.557 31.5277 145.977 31.5988 146.445 31.5632C156.781 31.5933 167.135 31.5879 177.471 31.5961C177.779 34.4411 177.589 37.3572 177.482 40.2132C177.454 43.4056 177.496 46.6008 177.443 49.7932C177.465 50.3567 177.387 51.0735 177.678 51.5741C178.084 51.9188 178.594 52.1677 179.07 52.3975C181.162 53.3495 183.262 54.2577 185.466 54.9361C189.782 56.386 194.086 57.8714 198.331 59.5128C201.496 60.7082 204.722 61.7368 207.903 62.8885C210.239 63.8049 212.443 64.6611 214.081 66.6226C215.825 68.5074 216.458 70.6685 217.458 72.9472C218.298 74.8895 219.088 76.8509 219.844 78.8233C224.742 90.9091 229.295 103.124 233.448 115.475C235.703 122.486 238.066 129.489 240.027 136.585C240.511 138.169 240.634 139.816 240.433 141.455C240.178 142.847 239.223 144.201 238.509 145.416C236.924 148.058 235.372 150.715 233.712 153.313C228.517 161.84 222.751 170 216.475 177.805C213.504 181.712 210.241 185.377 206.912 188.994C205.497 190.526 203.985 191.779 202.75 193.393C200.356 196.566 197.654 199.539 194.797 202.324C192.742 204.327 190.686 206.346 188.496 208.208C187.076 209.461 185.766 210.821 184.346 212.071C182.38 213.803 180.565 215.682 178.664 217.474C176.886 219.03 175.088 220.562 173.245 222.045C170.893 224.031 168.574 226.05 166.205 228.017C158.571 234.186 150.8 240.19 142.897 246.025C140.147 247.973 137.498 250.145 134.613 251.89C134.042 252.241 133.535 252.632 133.053 253.094C132.051 252.949 131.443 252.695 130.682 252.049C128.508 250.233 126.246 248.534 124.005 246.805C117.158 241.547 110.322 236.278 103.467 231.026C98.8044 227.401 94.2565 223.629 89.8318 219.728C86.0009 216.358 82.3799 212.771 79.039 208.936C77.3336 207.076 75.3789 205.243 73.1189 204.042C71.7999 203.372 70.3549 202.981 68.8763 202.855C66.1879 202.617 63.4715 202.464 60.7971 202.114C58.848 201.856 57.0641 201.151 55.2299 200.472C52.7095 199.504 50.0127 198.349 47.8872 196.689C45.7448 194.982 44.5491 192.468 43.5129 190.028C42.4011 187.454 41.6814 184.792 40.9757 182.092C39.8752 177.983 38.7298 173.888 37.6124 169.787C36.9739 167.44 36.3298 164.83 35.0108 162.751C33.6918 160.782 30.9446 159.824 29.0292 158.484C26.4976 156.749 24.6045 154.077 23.5543 151.256C22.647 148.811 21.9805 146.288 21.7229 143.698C21.2972 140.101 21.6445 136.544 21.2608 132.947C21.0536 130.89 21.2188 128.849 21.0844 126.789C21.006 125.651 20.9051 124.516 20.8883 123.375C20.8687 119.997 20.5943 116.635 20.6755 113.253C20.7259 109.555 20.6363 105.725 21.3084 102.076C21.6613 100.117 23.1847 99.3512 24.5849 98.1475C49.3518 77.6634 74.1271 57.1848 98.8968 36.7007C100.675 35.2481 102.439 33.7763 104.192 32.2909C104.778 31.7985 105.324 31.5113 106.119 31.5277ZM34.9632 101.633C36.383 101.586 37.7861 101.293 39.2059 101.168C41.1746 101.047 43.1097 100.782 45.0868 100.749C46.6774 100.503 48.2428 100.465 49.8475 100.489C51.2561 100.527 52.6395 100.284 54.0453 100.292C60.4778 100.229 66.706 99.994 73.1189 100.648C74.5555 100.858 76.219 100.987 77.5632 101.562C78.6134 102.051 79.5151 102.907 80.4504 103.583C88.1068 109.352 95.7099 115.196 103.391 120.932C104.047 120.604 104.688 120.254 105.313 119.874C107.97 118.254 110.673 116.692 113.369 115.138C117.262 112.832 121.586 111.177 126.03 110.239C127.083 110.004 128.128 109.787 129.214 109.776C128.878 110.296 128.503 110.739 128.002 111.117C126.058 112.613 124.039 113.992 121.989 115.346C116.355 119.138 110.743 122.962 105.128 126.781C104.372 127.262 103.635 127.941 102.781 128.234C101.409 127.758 100.182 126.778 98.9584 126.015C91.7781 121.088 84.9983 115.713 77.6892 110.966C77.3448 110.707 77.0619 111.229 76.9079 111.462C73.861 116.78 70.8702 121.936 67.8373 127.227C66.9132 128.92 65.3954 130.386 64.0204 131.754C63.3567 132.422 62.5418 132.61 61.724 133.013C61.5756 134.769 62.0657 136.555 62.0601 138.339C62.2309 139.86 62.3037 141.621 63.1718 142.926C64.0064 144.179 65.5858 144.918 66.9272 145.539C70.5005 147.123 74.0515 148.742 77.5688 150.444C80.9489 151.883 84.133 153.54 87.9359 153.363C90.9548 153.259 94.0128 151.642 96.5696 150.167C105.206 144.88 113.63 139.294 122.154 133.839C125.156 131.891 128.279 130.042 131.572 128.606C139.923 134.572 148.207 140.642 156.541 146.639C158.12 147.829 159.792 148.904 161.321 150.154C159.503 154.561 156.986 158.768 154.166 162.636C151.931 165.717 149.881 168.914 148.067 172.249C147.607 173.144 147.142 174.03 146.56 174.856C135.05 174.853 123.54 174.834 112.031 174.853C112.112 177.045 112.58 179.184 112.72 181.37C112.857 182.765 113.084 184.223 113.647 185.52C114.218 186.718 115.492 187.15 116.758 187.251C119.558 187.377 122.375 187.268 125.179 187.259C129.847 187.243 134.512 187.175 139.181 187.246C141.696 187.24 144.247 187.391 146.756 187.21C149.08 186.915 151.343 185.985 153.34 184.806C155.866 183.123 158.338 181.329 160.61 179.326C162.589 177.496 164.547 175.641 166.087 173.453C168.246 170.392 170.243 167.216 172.032 163.933C172.671 162.795 173.127 161.605 173.914 160.546C175.183 163.082 175.163 165.788 174.769 168.523C174.147 172.134 172.749 175.614 171.01 178.845C169.703 181.233 168.291 183.531 166.457 185.577C164.18 188.069 161.458 190.266 159.072 192.596C157.636 194.035 155.941 195.275 154.115 196.202C151.951 197.162 149.374 197.403 147.019 197.406C143.379 197.433 139.738 197.43 136.1 197.43C134.975 197.422 133.866 197.603 132.74 197.592C127.139 197.605 121.538 197.638 115.937 197.655C115.15 197.666 114.347 197.614 113.563 197.707C112.137 198.782 111.81 201.216 110.661 202.477C109.625 203.651 107.903 203.856 106.419 203.971C102.784 204.061 99.1292 203.993 95.4943 203.968C93.87 203.99 92.3102 203.574 90.6832 203.659C90.9576 204.184 91.2404 204.696 91.5877 205.177C95.3626 210.255 99.9469 214.484 104.954 218.377C111.025 223.377 117.083 228.403 123.165 233.387C125.963 235.608 128.511 237.816 131.614 239.638C132.39 240.234 133.446 239.167 134.062 238.746C145.092 229.727 156.121 220.721 167.163 211.718C170.842 208.657 174.486 205.563 178.045 202.373C184.324 196.79 190.72 190.854 195.931 184.302C197.483 182.464 199.006 180.612 200.387 178.645C197.508 173.056 193.753 168.266 190.543 162.907C189.796 161.69 189.137 160.442 188.737 159.072C195.153 160.505 201.583 161.909 207.998 163.339C209.995 163.731 211.955 164.305 213.966 164.611C213.68 164.182 213.383 163.761 213.067 163.353C208.315 157.327 203.582 151.284 198.838 145.246C197.945 144.097 197.035 143.052 196.242 141.843C204.03 143.744 211.815 145.687 219.6 147.604C221.549 148.047 223.471 148.636 225.436 148.983C224.678 147.489 223.535 146.425 222.381 145.23C216.007 138.612 209.275 132.312 202.736 125.851C201.339 124.431 199.813 123.11 198.522 121.594C208.009 125.161 217.542 128.619 227.041 132.167C228.066 132.548 229.08 132.941 230.141 133.226C229.405 132.408 228.601 131.667 227.814 130.898C220.939 124.209 214.053 117.532 207.169 110.852C203.733 107.61 200.35 104.316 196.987 101.006C204.33 103.591 211.656 106.237 218.993 108.835C220.382 109.322 221.695 109.869 223.126 110.231C222.311 106.231 219.738 102.855 216.932 99.9502C215.489 98.339 213.854 96.9411 212.241 95.5022C205.646 89.9517 198.659 85.52 191.588 80.6616C190.989 80.254 190.412 79.8218 189.863 79.3485C190.431 79.5072 190.994 79.685 191.543 79.9011C197.443 82.251 203.352 84.5899 209.267 86.9097C210.715 87.4705 212.132 88.0887 213.61 88.5784C212.812 85.6267 211.824 82.7188 210.843 79.8218C210.412 78.5744 209.961 77.1847 209.051 76.1834C208.357 75.4093 207.368 75.0509 206.419 74.6679C196.953 70.9667 187.516 67.1888 178.034 63.5259C177.975 66.6061 178.048 69.6864 178.025 72.7667C177.997 74.14 178.224 75.4941 178.193 76.8701C178.188 80.7847 178.28 84.7021 178.23 88.614C174.97 87.1067 171.859 85.2711 168.672 83.616C168.426 82.2783 168.496 80.957 168.484 79.6057C168.448 72.857 168.372 66.111 168.378 59.3623C168.398 58.1723 168.216 56.996 168.227 55.806C168.204 49.9984 168.143 44.188 168.12 38.3803C166.563 38.0302 165.104 38.3229 163.547 38.3776C158.705 38.3995 153.844 38.4049 149.005 38.4323C148.296 38.3858 147.971 38.8919 147.509 39.3159C144.118 42.8366 140.57 46.2123 137.153 49.7084C134.454 52.5452 131.592 55.2343 128.85 58.0328C128.43 58.4021 128.016 58.9766 127.388 58.9191C118.967 58.9547 110.608 59.0094 102.215 59.0422C98.7708 59.2419 95.3038 59.1325 91.8537 59.1626C89.9914 59.2036 88.2664 59.0833 86.4657 59.6605C83.6373 60.4894 81.2877 62.5629 79.0642 64.3794C66.5491 74.564 54.1713 84.9072 41.8775 95.3435C39.5531 97.3815 36.9795 99.2964 34.9632 101.633ZM92.8423 52.1185C94.5645 52.1951 96.2924 52.1431 98.0146 52.1568C107.472 52.1458 116.931 52.1786 126.386 52.1321C126.484 50.2747 126.775 48.4555 126.755 46.5871C127.024 44.322 127.094 42.0597 127.083 39.7809C124.767 39.8247 122.451 39.8247 120.135 39.8603C116.511 40.1557 112.854 40.0819 109.219 40.1503C108.133 40.2077 106.688 39.9095 105.859 40.7493C102.196 43.9144 98.5439 47.1014 94.8838 50.2692C94.1697 50.8519 93.4752 51.4537 92.8423 52.1185ZM31.2415 108.535C31.1575 110.285 31.2247 112.052 31.2919 113.801C31.6083 116.323 31.4711 118.919 31.5495 121.463C32.0004 126.803 31.8128 132.247 31.8884 137.6C32.1908 140.661 31.6503 143.279 32.6921 146.223C33.2466 148.149 34.3555 149.697 35.8902 150.999C37.6152 150.392 39.2591 149.59 40.9589 148.898C44.6247 147.369 48.268 145.788 51.9366 144.261C53.1744 143.665 54.569 143.148 54.8994 141.682C55.3783 138.76 54.891 135.587 53.9193 132.796C53.1408 132.791 52.3342 132.859 51.5641 132.753C50.738 132.206 50.1555 131.281 49.5114 130.542C44.1066 123.971 38.7018 117.403 33.2858 110.843C32.6389 110.036 32.0312 109.218 31.2415 108.535ZM138.223 167.664C139.466 167.913 140.704 167.875 141.824 167.24C143.423 166.362 144.611 164.661 145.448 163.104C147.263 159.572 149.08 156.016 150.609 152.356C145.143 147.727 139.693 143.071 134.26 138.407C134.204 139.105 134.221 139.794 134.364 140.483C134.857 143.063 135.283 145.654 135.739 148.242C136.66 153.152 137.481 158.03 137.895 163.008C137.887 164.576 138.206 166.102 138.223 167.664ZM120.771 145.391C120.765 145.996 120.771 146.598 120.816 147.199C121.695 153.984 122.644 160.823 123.459 167.61C126.991 167.642 130.525 167.631 134.056 167.615C133.992 165.186 134.087 162.718 133.793 160.308C133.7 158.727 133.765 157.154 133.499 155.581C133.32 151.798 132.706 148.012 131.636 144.368C131.152 142.784 130.312 141.386 129.346 140.043C126.4 141.673 123.624 143.613 120.771 145.391ZM110.468 167.604C113.537 167.623 116.604 167.615 119.673 167.615C119.516 163.906 119.205 160.185 118.813 156.489C118.323 153.891 117.996 150.887 116.559 148.616C114.834 149.738 113.109 150.879 111.487 152.14C110.575 152.865 109.547 153.926 109.309 155.081C109.183 157.091 109.188 159.151 109.597 161.132C109.978 163.279 110.213 165.44 110.468 167.604ZM40.3652 158.09C40.4549 158.689 40.5837 159.266 40.7517 159.849C42.8632 167.216 45.8065 174.287 48.0692 181.613C49.1222 185.183 50.8668 188.474 53.7792 190.933C57.669 194.23 62.973 195.162 67.9634 194.331C68.0138 192.856 68.053 191.33 67.8121 189.872C66.0339 180.492 63.085 171.253 60.2678 162.127C59.1673 158.889 58.2459 155.57 56.9689 152.394C51.4465 154.328 45.8989 156.189 40.3652 158.09ZM64.3732 152.446C64.4992 153.207 64.6365 153.962 64.8381 154.706C63.8439 155.379 64.3368 156.257 64.4544 157.225C65.779 163.03 67.7505 168.802 69.4672 174.52C70.0973 176.673 70.5453 178.864 71.2118 181.009C72.052 183.722 72.7213 186.337 74.1719 188.824C75.222 191.103 76.7707 193.718 79.0586 194.985C80.6633 195.959 82.7104 196.311 84.5726 196.322C88.8657 196.38 93.1615 196.339 97.4546 196.32C99.1012 196.339 100.784 196.043 102.296 195.409C103.904 194.714 104.915 193.187 105.111 191.505C105.226 190.156 105.192 188.799 104.906 187.47C104.167 182.612 102.565 178.213 101.263 173.502C100.336 170.271 99.4205 167.032 98.6195 163.769C95.9983 163.391 93.3744 163.375 90.7308 163.419C89.5462 163.454 88.3924 163.238 87.2806 162.847C84.581 161.87 81.9963 160.664 79.4395 159.381C74.5023 157.045 69.4952 154.295 64.3732 152.446Z" fill="black"/>
<path d="M149.005 38.4322C153.844 38.4049 158.705 38.3994 163.547 38.3775C165.104 38.3228 166.563 38.0301 168.12 38.3803C168.143 44.1879 168.204 49.9983 168.227 55.806C168.216 56.996 168.398 58.1723 168.378 59.3622C168.372 66.1109 168.448 72.8569 168.484 79.6056C168.496 80.957 168.426 82.2783 168.672 83.616C171.859 85.271 174.97 87.1066 178.23 88.6139C178.28 84.702 178.188 80.7846 178.193 76.87C178.224 75.494 177.997 74.1399 178.025 72.7666C178.048 69.6864 177.975 66.6061 178.034 63.5258C187.516 67.1888 196.953 70.9666 206.419 74.6679C207.368 75.0508 208.357 75.4092 209.051 76.1834C209.961 77.1846 210.412 78.5743 210.844 79.8217C211.824 82.7187 212.812 85.6266 213.61 88.5783C212.132 88.0887 210.715 87.4704 209.267 86.9096C203.352 84.5899 197.443 82.2509 191.543 79.901C190.994 79.6849 190.431 79.5071 189.863 79.3485C190.412 79.8217 190.989 80.2539 191.588 80.6615C198.659 85.5199 205.646 89.9516 212.241 95.5021C213.854 96.941 215.489 98.3389 216.932 99.9502C219.738 102.855 222.311 106.231 223.126 110.231C221.695 109.869 220.382 109.322 218.993 108.835C211.656 106.237 204.33 103.591 196.987 101.006C200.35 104.316 203.733 107.61 207.169 110.852C214.053 117.532 220.939 124.209 227.814 130.898C228.601 131.667 229.405 132.408 230.141 133.226C229.08 132.941 228.066 132.547 227.041 132.167C217.542 128.619 208.009 125.161 198.522 121.594C199.813 123.11 201.339 124.431 202.736 125.851C209.275 132.312 216.007 138.612 222.381 145.23C223.535 146.425 224.678 147.489 225.436 148.983C223.471 148.635 221.549 148.047 219.6 147.604C211.815 145.687 204.03 143.744 196.242 141.843C197.035 143.052 197.945 144.097 198.838 145.246C203.582 151.284 208.315 157.326 213.067 163.353C213.383 163.761 213.68 164.182 213.966 164.611C211.955 164.305 209.995 163.73 207.998 163.339C201.583 161.909 195.153 160.505 188.737 159.072C189.137 160.442 189.796 161.69 190.543 162.907C193.753 168.266 197.508 173.056 200.387 178.645C199.006 180.612 197.483 182.464 195.931 184.302C190.72 190.854 184.324 196.79 178.045 202.373C174.486 205.563 170.842 208.657 167.163 211.718C156.121 220.721 145.092 229.727 134.062 238.746C133.446 239.167 132.39 240.234 131.614 239.638C128.511 237.816 125.963 235.608 123.165 233.387C117.083 228.403 111.025 223.377 104.954 218.377C99.947 214.484 95.3627 210.255 91.5877 205.177C91.2404 204.696 90.9576 204.184 90.6832 203.659C92.3102 203.574 93.87 203.99 95.4943 203.968C99.1292 203.993 102.784 204.061 106.419 203.971C107.903 203.856 109.625 203.651 110.661 202.477C111.81 201.216 112.137 198.782 113.563 197.706C114.347 197.613 115.15 197.665 115.937 197.655C121.538 197.638 127.139 197.605 132.74 197.592C133.866 197.603 134.975 197.422 136.1 197.43C139.738 197.43 143.379 197.433 147.019 197.406C149.374 197.403 151.951 197.162 154.115 196.202C155.941 195.275 157.636 194.035 159.072 192.596C161.458 190.266 164.18 188.069 166.457 185.577C168.291 183.531 169.703 181.233 171.01 178.845C172.749 175.614 174.147 172.134 174.769 168.523C175.163 165.788 175.183 163.082 173.914 160.546C173.127 161.605 172.671 162.795 172.033 163.933C170.243 167.216 168.246 170.392 166.087 173.453C164.547 175.641 162.59 177.496 160.61 179.326C158.338 181.329 155.866 183.123 153.34 184.805C151.343 185.984 149.08 186.915 146.756 187.21C144.247 187.391 141.696 187.24 139.181 187.246C134.513 187.174 129.847 187.243 125.179 187.259C122.375 187.267 119.558 187.377 116.758 187.251C115.492 187.15 114.218 186.718 113.647 185.519C113.084 184.223 112.857 182.765 112.72 181.37C112.58 179.184 112.112 177.045 112.031 174.853C123.54 174.834 135.05 174.853 146.56 174.856C147.142 174.03 147.607 173.144 148.067 172.249C149.881 168.914 151.931 165.717 154.166 162.636C156.986 158.768 159.503 154.561 161.321 150.154C159.792 148.904 158.12 147.828 156.541 146.638C148.207 140.642 139.923 134.572 131.572 128.605C128.279 130.042 125.156 131.891 122.154 133.839C113.63 139.293 105.206 144.88 96.5696 150.167C94.0129 151.642 90.9548 153.259 87.936 153.363C84.133 153.54 80.9489 151.883 77.5688 150.444C74.0515 148.742 70.5006 147.123 66.9272 145.539C65.5858 144.918 64.0064 144.179 63.1719 142.926C62.3037 141.621 62.2309 139.86 62.0601 138.339C62.0657 136.555 61.5756 134.769 61.7241 133.013C62.5418 132.61 63.3567 132.422 64.0204 131.754C65.3954 130.386 66.9132 128.92 67.8374 127.227C70.8702 121.936 73.8611 116.78 76.9079 111.462C77.0619 111.229 77.3448 110.707 77.6892 110.966C84.9983 115.713 91.7781 121.088 98.9584 126.015C100.182 126.778 101.409 127.757 102.781 128.233C103.635 127.941 104.372 127.262 105.128 126.781C110.743 122.962 116.355 119.138 121.989 115.346C124.039 113.992 126.058 112.613 128.002 111.117C128.503 110.739 128.878 110.296 129.214 109.776C128.128 109.787 127.083 110.003 126.03 110.239C121.586 111.177 117.262 112.832 113.369 115.138C110.673 116.692 107.97 118.254 105.313 119.873C104.688 120.254 104.047 120.604 103.391 120.932C95.7099 115.196 88.1068 109.352 80.4504 103.583C79.5151 102.907 78.6134 102.051 77.5632 101.561C76.219 100.987 74.5556 100.858 73.1189 100.648C66.706 99.994 60.4779 100.229 54.0453 100.292C52.6395 100.284 51.2561 100.527 49.8475 100.489C48.2428 100.464 46.6774 100.503 45.0868 100.749C43.1097 100.782 41.1746 101.047 39.2059 101.168C37.7861 101.293 36.3831 101.586 34.9633 101.633C36.9796 99.2964 39.5531 97.3815 41.8775 95.3435C54.1713 84.9072 66.5492 74.5639 79.0642 64.3793C81.2878 62.5629 83.6373 60.4893 86.4657 59.6604C88.2664 59.0832 89.9915 59.2036 91.8537 59.1625C95.3039 59.1325 98.7708 59.2419 102.215 59.0422C110.608 59.0093 118.967 58.9546 127.388 58.9191C128.016 58.9765 128.43 58.402 128.85 58.0327C131.592 55.2342 134.454 52.5451 137.153 49.7083C140.57 46.2123 144.118 42.8365 147.509 39.3158C147.971 38.8918 148.296 38.3857 149.005 38.4322ZM138.8 70.6301C140.43 71.4262 142.11 71.9788 143.804 72.6791C147.008 73.9758 150.242 75.2013 153.435 76.5281C153.315 75.1767 153.043 73.8581 153.046 72.4985C153.034 70.8298 152.939 69.0107 153.359 67.3885C153.844 65.3751 154.768 63.4547 155.854 61.6848C156.686 60.3662 157.728 59.1571 159.019 58.2488C159.705 57.7729 160.349 57.2695 160.948 56.6896C160.75 54.8868 160.246 53.147 160.061 51.3442C159.957 50.2691 159.828 49.1968 159.755 48.119C157.476 48.9725 155.252 50.0749 153.359 51.6014C150.298 53.9786 147.537 56.7197 145.199 59.7863C142.631 63.0908 140.281 66.7264 138.8 70.6301ZM102.378 102.286C104.386 101.928 106.332 101.263 108.317 100.801C109.816 100.341 111.384 100.073 112.862 99.5699C113.397 98.9408 113.568 97.9915 113.871 97.2392C116.058 91.2756 118.245 85.3093 120.435 79.3485C120.933 77.9615 121.516 76.6867 121.815 75.2341C120.863 75.6171 119.984 76.1232 119.144 76.6977C115.837 78.9326 112.689 81.3892 109.6 83.8184C106.909 85.9248 104.341 88.1707 101.837 90.485C101.549 90.7176 101.414 91.0021 101.426 91.3468C101.339 94.0659 101.871 96.848 102.098 99.5617C102.151 100.475 102.285 101.375 102.378 102.286ZM139.447 119.51C140.2 120.284 141.085 120.861 141.967 121.482C152.399 129.071 162.833 136.656 173.267 144.242C174.43 145.076 175.463 145.927 176.695 146.628C175.992 145.503 175.105 144.576 174.267 143.553C168.661 136.799 163.06 130.044 157.454 123.288C156.661 122.325 155.818 121.43 155.152 120.371C155.56 120.604 155.961 120.85 156.353 121.107C165.281 127.191 174.175 133.313 183.066 139.444C181.968 138.019 180.84 136.626 179.647 135.275C174.413 129.123 169.151 122.992 163.922 116.84C172.229 121.496 180.543 126.146 188.796 130.898C187.978 129.645 186.956 128.581 185.962 127.467C182.604 123.635 179.272 119.783 175.905 115.956C174.981 114.87 173.998 113.847 173.141 112.709C175.502 113.724 177.701 115.108 179.975 116.301C183.279 118.063 186.466 120.202 189.91 121.687C188.978 120.451 187.746 119.417 186.676 118.287C183.444 114.969 180.145 111.716 176.874 108.433C175.368 106.934 173.956 105.326 172.388 103.887C166.398 106.611 160.492 109.566 154.547 112.386C149.512 114.763 144.504 117.19 139.447 119.51Z" fill="#E6E6E6"/>
<path d="M109.219 40.1503C112.854 40.0819 116.511 40.1558 120.135 39.8603C122.451 39.8248 124.767 39.8248 127.083 39.781C127.094 42.0598 127.024 44.3221 126.755 46.5872C126.775 48.4556 126.484 50.2747 126.386 52.1322C116.931 52.1787 107.472 52.1459 98.0147 52.1568C96.2924 52.1431 94.5645 52.1951 92.8423 52.1185C93.4752 51.4538 94.1697 50.8519 94.8838 50.2693C98.5439 47.1014 102.196 43.9145 105.859 40.7494C106.688 39.9096 108.133 40.2078 109.219 40.1503Z" fill="#E6E6E6"/>
<path d="M159.755 48.119C159.828 49.1968 159.957 50.2692 160.061 51.3443C160.246 53.147 160.75 54.8869 160.948 56.6896C160.349 57.2696 159.705 57.7729 159.019 58.2489C157.728 59.1571 156.686 60.3663 155.854 61.6848C154.768 63.4547 153.844 65.3751 153.359 67.3885C152.939 69.0107 153.034 70.8299 153.046 72.4986C153.043 73.8582 153.314 75.1767 153.435 76.5281C150.242 75.2014 147.008 73.9758 143.804 72.6791C142.11 71.9788 140.43 71.4262 138.8 70.6302C140.281 66.7265 142.631 63.0909 145.199 59.7863C147.537 56.7197 150.298 53.9787 153.359 51.6014C155.252 50.075 157.476 48.9725 159.755 48.119Z" fill="black"/>
<path d="M121.815 75.2341C121.516 76.6867 120.933 77.9615 120.435 79.3485C118.245 85.3093 116.058 91.2756 113.871 97.2392C113.568 97.9915 113.397 98.9408 112.862 99.5699C111.384 100.073 109.816 100.341 108.317 100.801C106.332 101.263 104.386 101.928 102.378 102.286C102.285 101.375 102.151 100.475 102.098 99.5617C101.871 96.848 101.339 94.0659 101.425 91.3468C101.414 91.0021 101.549 90.7176 101.837 90.485C104.341 88.1707 106.909 85.9248 109.6 83.8184C112.689 81.3892 115.836 78.9327 119.144 76.6977C119.984 76.1232 120.863 75.6171 121.815 75.2341Z" fill="black"/>
<path d="M172.388 103.887C173.956 105.326 175.368 106.934 176.874 108.433C180.145 111.716 183.444 114.969 186.676 118.287C187.746 119.417 188.978 120.451 189.91 121.687C186.466 120.202 183.279 118.063 179.974 116.301C177.7 115.108 175.502 113.724 173.141 112.709C173.998 113.847 174.981 114.87 175.905 115.956C179.272 119.783 182.604 123.635 185.962 127.468C186.956 128.581 187.978 129.645 188.796 130.898C180.543 126.146 172.228 121.496 163.922 116.84C169.151 122.992 174.413 129.123 179.647 135.275C180.84 136.626 181.968 138.019 183.066 139.444C174.175 133.313 165.281 127.191 156.353 121.107C155.961 120.85 155.56 120.604 155.152 120.371C155.818 121.43 156.661 122.325 157.453 123.288C163.06 130.044 168.661 136.799 174.267 143.553C175.104 144.576 175.992 145.503 176.695 146.628C175.463 145.927 174.43 145.077 173.267 144.242C162.833 136.656 152.399 129.071 141.967 121.482C141.085 120.861 140.2 120.284 139.447 119.51C144.504 117.19 149.511 114.763 154.547 112.386C160.492 109.566 166.398 106.611 172.388 103.887Z" fill="black"/>
<path d="M31.2415 108.535C32.0312 109.218 32.6389 110.036 33.2858 110.843C38.7018 117.403 44.1066 123.971 49.5114 130.542C50.1555 131.281 50.738 132.206 51.5641 132.753C52.3342 132.859 53.1407 132.791 53.9193 132.796C54.891 135.587 55.3783 138.76 54.8994 141.682C54.569 143.148 53.1744 143.665 51.9366 144.261C48.268 145.788 44.6247 147.369 40.9589 148.898C39.2591 149.59 37.6152 150.392 35.8902 150.999C34.3555 149.697 33.2466 148.149 32.6921 146.223C31.6503 143.279 32.1908 140.661 31.8884 137.6C31.8128 132.247 32.0004 126.803 31.5495 121.463C31.4711 118.919 31.6083 116.323 31.2919 113.801C31.2247 112.053 31.1575 110.285 31.2415 108.535Z" fill="#E6E6E6"/>
<path d="M134.26 138.407C139.693 143.071 145.143 147.727 150.609 152.356C149.08 156.016 147.263 159.572 145.448 163.104C144.611 164.661 143.423 166.362 141.824 167.24C140.704 167.875 139.466 167.913 138.223 167.664C138.206 166.102 137.887 164.576 137.895 163.008C137.481 158.03 136.66 153.152 135.739 148.242C135.283 145.654 134.857 143.063 134.364 140.484C134.221 139.794 134.204 139.105 134.26 138.407Z" fill="white"/>
<path d="M129.346 140.043C130.312 141.386 131.152 142.784 131.636 144.368C132.706 148.012 133.32 151.798 133.499 155.581C133.765 157.154 133.7 158.727 133.793 160.308C134.087 162.718 133.992 165.186 134.056 167.615C130.525 167.632 126.991 167.642 123.459 167.61C122.644 160.823 121.695 153.984 120.816 147.199C120.771 146.598 120.765 145.996 120.771 145.391C123.624 143.613 126.4 141.674 129.346 140.043Z" fill="white"/>
<path d="M116.559 148.616C117.996 150.887 118.323 153.891 118.813 156.489C119.205 160.185 119.516 163.906 119.673 167.615C116.604 167.615 113.537 167.623 110.468 167.604C110.213 165.44 109.978 163.279 109.597 161.132C109.188 159.151 109.183 157.091 109.309 155.081C109.547 153.926 110.575 152.865 111.487 152.14C113.109 150.879 114.834 149.738 116.559 148.616Z" fill="white"/>
<path d="M56.9689 152.394C58.2459 155.57 59.1672 158.889 60.2678 162.128C63.085 171.253 66.0339 180.492 67.8121 189.872C68.053 191.33 68.0138 192.856 67.9634 194.331C62.973 195.162 57.669 194.23 53.7792 190.933C50.8668 188.474 49.1221 185.183 48.0692 181.613C45.8064 174.287 42.8632 167.216 40.7517 159.849C40.5837 159.266 40.4548 158.689 40.3652 158.09C45.8989 156.189 51.4465 154.328 56.9689 152.394Z" fill="white"/>
<path d="M64.3732 152.446C69.4951 154.296 74.5023 157.045 79.4394 159.381C81.9962 160.664 84.581 161.87 87.2806 162.847C88.3924 163.238 89.5461 163.454 90.7307 163.419C93.3743 163.375 95.9983 163.391 98.6195 163.769C99.4204 167.032 100.336 170.271 101.263 173.502C102.565 178.213 104.167 182.612 104.906 187.47C105.192 188.8 105.226 190.156 105.111 191.505C104.915 193.187 103.904 194.714 102.296 195.409C100.784 196.043 99.1012 196.339 97.4545 196.32C93.1615 196.339 88.8656 196.38 84.5726 196.322C82.7103 196.311 80.6632 195.959 79.0586 194.985C76.7706 193.718 75.222 191.103 74.1718 188.824C72.752 184.97 71.8699 180.987 70.7805 177.039C68.8174 169.604 66.8263 162.136 64.838 154.706C64.6364 153.962 64.4992 153.207 64.3732 152.446Z" fill="white"/>
<path d="M64.8381 154.706C66.8264 162.136 68.8175 169.604 70.7806 177.039C71.87 180.987 72.7521 184.97 74.1719 188.824C72.7213 186.337 72.052 183.722 71.2119 181.009C70.5454 178.864 70.0973 176.673 69.4672 174.52C67.7505 168.802 65.7791 163.03 64.4545 157.225C64.3368 156.257 63.844 155.379 64.8381 154.706Z" fill="#4B521E"/>
</svg>
