<svg width="40" height="41" viewBox="0 0 40 41" fill="none" xmlns="http://www.w3.org/2000/svg">
<path d="M8.38423 0.904785C3.77583 0.904785 0 4.67162 0 9.26905V32.4453C0 37.0427 3.77583 40.8095 8.38423 40.8095H31.6158C36.2242 40.8095 40 37.0427 40 32.4453V9.26905C40 4.67162 36.2242 0.904785 31.6158 0.904785H8.38423ZM8.38423 4.53249H31.6158C34.2583 4.53249 36.3636 6.63284 36.3636 9.26905V32.4453C36.3636 35.0815 34.2583 37.1818 31.6158 37.1818H8.38423C5.74173 37.1818 3.63636 35.0815 3.63636 32.4453V9.26905C3.63636 6.63284 5.74173 4.53249 8.38423 4.53249ZM21.8182 8.16019V26.2987C21.8182 28.3242 20.2121 29.9264 18.1818 29.9264C16.1515 29.9264 14.5455 28.3242 14.5455 26.2987C14.5455 24.2732 16.1515 22.671 18.1818 22.671V19.0433C14.1867 19.0433 10.9091 22.3131 10.9091 26.2987C10.9091 30.2844 14.1867 33.5541 18.1818 33.5541C22.177 33.5541 25.4545 30.2844 25.4545 26.2987V15.2137C26.9597 16.3765 28.7441 17.2006 30.7777 17.2295L30.831 13.6018C27.8378 13.5593 25.4545 11.1607 25.4545 8.16019H21.8182Z" fill="#F4EBD0"/>
</svg>
