<svg width="40" height="41" viewBox="0 0 40 41" fill="none" xmlns="http://www.w3.org/2000/svg">
<path d="M0 40.8095L2.82509 30.5623C1.08181 27.5628 0.165788 24.1626 0.167462 20.6759C0.172486 9.77528 9.10659 0.904785 20.0837 0.904785C25.4107 0.906448 30.4111 2.96653 34.1723 6.70428C37.9318 10.442 40.0017 15.4102 40 20.6942C39.995 31.5965 31.0609 40.467 20.0837 40.467C16.7512 40.4654 13.4673 39.6357 10.5585 38.0594L0 40.8095ZM11.0475 34.4796C13.8541 36.134 16.5335 37.125 20.077 37.1267C29.2004 37.1267 36.6323 29.7543 36.6374 20.6909C36.6407 11.6092 29.2439 4.24681 20.0904 4.24348C10.9604 4.24348 3.53345 11.6159 3.5301 20.6776C3.52843 24.3771 4.62028 27.1471 6.45399 30.0452L4.78104 36.1107L11.0475 34.4796ZM30.1164 25.3947C29.9925 25.1885 29.6609 25.0654 29.1619 24.8177C28.6645 24.57 26.2179 23.3745 25.7607 23.2099C25.3052 23.0453 24.9736 22.9621 24.6404 23.4576C24.3088 23.9514 23.3543 25.0654 23.0646 25.3947C22.7748 25.7239 22.4835 25.7654 21.9861 25.5177C21.4887 25.27 19.8844 24.7495 17.9838 23.0652C16.5051 21.755 15.5053 20.1372 15.2156 19.6417C14.9259 19.1479 15.1855 18.8802 15.4333 18.6341C15.6577 18.413 15.9307 18.0572 16.1802 17.7679C16.4331 17.4819 16.5151 17.2757 16.6826 16.9448C16.8484 16.6156 16.7663 16.3263 16.6407 16.0786C16.5151 15.8325 15.5204 13.4 15.1068 12.4107C14.7015 11.448 14.2912 11.5776 13.9864 11.5627L13.0319 11.5461C12.7003 11.5461 12.1611 11.6691 11.7056 12.1646C11.2501 12.6601 9.96399 13.8539 9.96399 16.2864C9.96399 18.7189 11.7475 21.0683 11.9953 21.3975C12.2448 21.7267 15.5036 26.7182 20.4957 28.8581C21.683 29.3668 22.6107 29.6711 23.3325 29.8989C24.5248 30.2747 25.61 30.2215 26.4674 30.0951C27.4236 29.9538 29.4114 28.8996 29.8267 27.7457C30.242 26.5901 30.242 25.6008 30.1164 25.3947Z" fill="#F4EBD0"/>
</svg>
