<?xml version="1.0" standalone="no"?>
<!DOCTYPE svg PUBLIC "-//W3C//DTD SVG 20010904//EN"
 "http://www.w3.org/TR/2001/REC-SVG-20010904/DTD/svg10.dtd">
<svg version="1.0" xmlns="http://www.w3.org/2000/svg"
 width="1920.000000pt" height="1080.000000pt" viewBox="0 0 1920.000000 1080.000000"
 preserveAspectRatio="xMidYMid meet">

<g transform="translate(0.000000,1080.000000) scale(0.100000,-0.100000)"
fill="#000000" stroke="none">
<path d="M883 9974 c-9 -25 5 -685 17 -794 36 -317 147 -517 382 -688 65 -48
185 -111 260 -138 37 -13 44 -12 118 17 88 34 229 119 307 185 105 90 200 234
248 376 45 137 56 250 62 671 l6 387 -697 0 c-634 0 -697 -1 -703 -16z m1307
-45 c0 -5 4 -8 9 -5 25 16 28 -73 3 -104 l-17 -22 -19 21 c-11 12 -30 21 -45
20 l-26 -1 25 -8 25 -8 -25 -2 c-23 -1 -23 -2 -5 -10 l20 -9 -20 0 c-17 -1
-17 -3 -5 -11 8 -5 11 -10 5 -10 -5 0 -21 -3 -35 -5 -22 -5 -23 -4 -5 5 16 8
14 9 -15 5 -25 -4 -31 -2 -20 5 8 5 24 10 35 11 l20 0 -20 9 c-18 8 -18 9 -2
9 10 1 15 5 12 11 -3 5 6 12 21 16 l27 7 -28 24 c-21 18 -25 27 -16 36 6 6 11
8 11 3 0 -4 7 0 16 8 17 18 74 22 74 5z m-1196 -14 c15 -11 23 -12 33 -3 10 8
17 8 25 0 16 -16 49 -15 93 4 45 18 60 9 45 -30 -17 -45 -12 -82 16 -115 18
-22 22 -31 11 -31 -8 0 -20 7 -27 15 -7 9 -15 13 -18 10 -3 -3 -12 0 -21 6 -9
7 0 -4 21 -24 43 -42 38 -59 -6 -20 l-31 28 29 -32 c52 -58 14 -35 -59 35
l-70 67 69 -71 c62 -66 67 -72 47 -79 -12 -3 -19 -11 -16 -16 10 -15 -9 -10
-35 11 -28 22 -77 26 -115 8 -37 -17 -51 1 -31 40 20 39 20 86 0 103 -14 11
-14 13 1 22 15 8 15 11 0 34 -29 43 -2 69 39 38z m604 6 c11 -7 11 -9 -2 -14
-20 -8 -48 2 -40 14 7 11 25 11 42 0z m-59 -34 c8 -11 7 -18 -7 -30 -16 -15
-19 -15 -30 4 -21 33 12 56 37 26z m129 -17 c56 -40 56 -50 -1 -64 -17 -4 -26
-3 -23 3 3 5 -9 22 -28 39 -25 22 -31 33 -23 41 17 17 30 14 75 -19z m-60 -39
l21 -29 -39 -40 -39 -39 -37 30 -36 30 23 17 c22 17 23 17 47 -11 13 -16 28
-26 34 -23 5 4 -4 20 -21 38 -24 25 -28 35 -19 44 20 20 43 14 66 -17z m-128
3 c11 -13 10 -19 -10 -37 -12 -12 -20 -17 -16 -11 3 7 -2 18 -11 25 -15 12
-16 12 -10 -4 4 -11 3 -16 -3 -12 -14 8 -13 28 2 43 16 16 33 15 48 -4z m293
-56 c19 -24 44 -62 56 -85 l21 -42 -21 -12 c-34 -18 -109 -90 -124 -119 -13
-26 -16 -27 -70 -19 -62 8 -99 28 -116 61 -9 19 -7 18 13 -4 41 -48 137 -66
164 -30 22 28 17 32 -39 32 -54 0 -85 18 -100 60 -4 12 -6 12 -6 -1 -1 -23
-51 -42 -51 -19 0 6 9 10 20 10 11 0 20 6 20 13 0 71 59 149 124 166 25 6 48
15 51 21 11 18 23 11 58 -32z m-344 -2 l24 -13 -22 -12 c-16 -9 -26 -9 -35 -2
-7 6 -16 7 -21 3 -4 -4 -2 3 4 16 13 25 17 26 50 8z m641 -13 c24 -6 23 -7
-10 -19 -25 -9 -29 -13 -15 -14 13 -1 6 -7 -20 -16 -28 -9 -32 -13 -13 -10 15
2 25 -1 22 -5 -3 -5 -15 -9 -27 -9 -18 0 -19 -2 -7 -10 17 -11 1 -13 -25 -4
-13 5 -14 8 -3 15 9 6 6 9 -12 10 -19 1 -14 4 20 15 37 11 39 13 11 9 -44 -7
-36 1 20 20 40 14 41 14 9 10 -25 -4 -31 -2 -20 5 18 11 36 12 70 3z m-879
-20 c13 -16 12 -17 -3 -4 -17 13 -22 21 -14 21 2 0 10 -8 17 -17z m322 -21
c22 -23 26 -33 20 -65 -7 -46 -25 -48 -76 -6 -41 33 -46 53 -20 81 23 25 45
23 76 -10z m399 -9 c48 -39 118 -115 118 -128 0 -6 -5 -16 -11 -22 -9 -9 -19
-2 -41 28 -16 22 -53 58 -83 81 -41 32 -51 45 -43 55 15 18 22 17 60 -14z
m-507 -1 c-3 -3 -11 0 -18 7 -9 10 -8 11 6 5 10 -3 15 -9 12 -12z m-165 -4 c0
-14 -59 -78 -72 -78 -17 0 -7 26 24 57 34 35 48 41 48 21z m201 -63 l38 -40
-71 -71 c-40 -41 -67 -77 -64 -83 10 -16 52 -13 66 5 8 8 23 20 34 25 12 6 3
-5 -19 -25 -22 -19 -43 -35 -46 -36 -18 -1 -94 67 -119 107 l-29 46 67 73 c75
82 64 82 143 -1z m-186 -25 l-29 -30 -20 20 -20 20 29 30 29 30 20 -20 20 -20
-29 -30z m640 40 c11 -17 -5 -32 -21 -19 -8 6 -14 15 -14 20 0 12 27 11 35 -1z
m26 -43 c-13 -13 -26 -3 -16 12 3 6 11 8 17 5 6 -4 6 -10 -1 -17z m17 -55 l73
-67 -57 -58 -57 -58 -77 76 c-59 59 -78 73 -88 63 -18 -18 -15 -32 18 -73 41
-52 38 -59 -5 -10 -42 49 -43 64 -8 106 31 36 100 89 117 89 6 -1 44 -31 84
-68z m21 34 c8 -10 9 -16 1 -21 -13 -8 -30 3 -30 21 0 18 14 18 29 0z m-711
-76 c17 -27 52 -64 78 -82 l46 -33 -5 -53 c-6 -59 -25 -96 -59 -113 -19 -9
-19 -7 4 13 25 22 48 80 48 124 0 11 -13 30 -28 41 l-28 21 4 -52 c3 -41 0
-56 -18 -78 -12 -16 -29 -28 -38 -28 -14 0 -14 -1 0 -12 20 -17 30 -46 18 -53
-6 -4 -10 3 -10 15 0 22 -2 23 -69 40 -56 15 -96 54 -112 111 -7 24 -18 49
-26 55 -11 10 -6 19 29 49 33 28 89 64 134 85 1 0 15 -22 32 -50z m284 5 l28
-33 -26 -17 c-14 -9 -32 -14 -40 -11 -19 7 -31 39 -16 44 7 2 10 8 6 13 -3 5
-2 9 3 8 20 -3 25 2 13 16 -7 8 -9 15 -4 14 5 0 21 -15 36 -34z m127 -131
c-48 -49 -69 -59 -69 -33 0 6 23 35 52 65 44 46 53 52 61 38 7 -13 -2 -28 -44
-70z m361 82 c0 -2 -8 -10 -17 -17 -16 -13 -17 -12 -4 4 13 16 21 21 21 13z
m45 -7 c4 -5 4 -22 0 -36 -6 -24 -7 -24 -25 -8 -15 14 -17 20 -7 36 13 21 23
24 32 8z m-306 -295 c0 -6 -10 -21 -24 -34 l-25 -24 -153 150 -154 149 31 28
30 27 147 -142 c80 -79 147 -148 148 -154z m-77 193 c-28 -28 -55 -48 -59 -44
-4 4 18 32 47 63 30 30 57 49 59 43 2 -6 -19 -34 -47 -62z m338 53 c26 -26 25
-42 -5 -70 -13 -12 -22 -27 -19 -31 10 -16 21 -9 45 26 28 41 32 42 47 11 9
-20 7 -27 -13 -46 -14 -13 -22 -27 -19 -32 4 -5 -12 2 -34 15 -21 14 -56 29
-76 32 -26 5 -36 12 -36 26 0 10 4 20 9 23 5 4 7 -3 4 -14 -9 -35 22 -23 53
21 23 34 25 42 13 50 -10 6 -10 9 -1 9 6 0 21 -9 32 -20z m-954 -45 c8 -32 23
-59 43 -77 33 -30 33 -36 -2 -75 -31 -35 1 -29 38 7 28 27 33 29 68 19 20 -5
37 -12 37 -15 0 -3 -9 -3 -19 1 -15 4 -27 -5 -51 -40 -26 -37 -28 -45 -14 -45
10 0 29 10 43 23 l26 22 -25 -28 c-29 -33 -70 -34 -85 0 -5 12 -19 24 -31 27
-13 4 -25 15 -29 26 -3 10 -15 22 -26 25 -11 4 -24 16 -28 28 -7 17 -2 28 20
48 16 14 29 32 29 39 0 8 -17 -3 -38 -23 -38 -37 -52 -39 -52 -7 0 23 58 102
72 98 6 -2 17 -26 24 -53z m904 52 c0 -2 -10 -12 -22 -23 l-23 -19 19 23 c18
21 26 27 26 19z m163 -11 c3 -7 -1 -23 -9 -35 -14 -19 -16 -19 -32 -3 -15 15
-15 19 -2 34 19 20 36 22 43 4z m-387 -35 c-9 -10 -16 -21 -16 -26 0 -14 -52
-65 -67 -65 -7 0 -13 5 -13 12 0 17 92 108 102 102 5 -3 2 -14 -6 -23z m59
-10 c-3 -5 0 -13 6 -17 6 -3 15 -1 19 6 4 7 9 8 12 4 2 -5 -11 -23 -29 -41
l-33 -32 -16 31 c-19 38 -12 58 21 58 15 0 24 -4 20 -9z m379 -17 c6 -16 -9
-44 -24 -44 -14 0 -20 32 -9 46 15 18 25 18 33 -2z m-257 -39 c88 -19 137 -61
149 -127 4 -18 13 -40 21 -49 12 -15 9 -21 -26 -50 -53 -46 -133 -87 -138 -72
-10 27 -77 103 -115 129 -39 27 -40 30 -34 72 8 61 25 92 66 120 34 23 34 23
42 3 4 -11 20 -23 35 -26z m218 -15 c9 -16 20 -30 25 -30 19 0 10 -45 -15 -83
-29 -42 -50 -47 -59 -15 -4 17 4 32 31 60 41 42 28 53 -14 13 -26 -24 -27 -24
-41 -4 -12 17 -10 23 15 54 15 18 31 34 35 34 4 1 14 -12 23 -29z m-1175 -5
c8 -11 10 -17 6 -13 -5 4 -15 3 -22 -3 -18 -14 -29 8 -13 27 6 8 12 13 13 12
1 -2 8 -12 16 -23z m1244 -2 c9 -23 -12 -43 -24 -23 -6 9 -6 16 0 18 6 2 8 8
4 13 -3 5 -1 9 4 9 6 0 13 -8 16 -17z m-680 -10 c9 -9 -105 -124 -116 -117 -8
5 90 123 103 124 3 0 9 -3 13 -7z m-141 -35 c11 -23 13 -36 5 -45 -16 -20 -45
-15 -51 9 -5 18 -8 19 -22 8 -8 -7 -18 -10 -22 -7 -3 4 6 12 21 18 14 7 28 20
31 31 9 26 20 22 38 -14z m-387 -30 c-6 -10 -15 -17 -21 -15 -15 5 -18 36 -5
53 19 22 42 -12 26 -38z m503 -26 c-30 -31 -55 -59 -56 -61 -2 -2 -6 -1 -10 3
-4 3 20 33 52 66 75 75 87 69 14 -8z m84 32 c6 -7 -110 -124 -124 -124 -18 0
-8 16 48 72 57 58 65 63 76 52z m-529 -29 c7 -19 -14 -57 -29 -52 -15 5 -18
36 -5 52 16 19 26 19 34 0z m360 -132 c24 9 19 40 -9 67 -14 13 -25 28 -25 34
0 18 59 -58 60 -77 0 -23 -70 -98 -114 -122 l-34 -18 -76 68 -76 69 47 50 c27
28 53 54 58 58 6 4 42 -24 82 -64 49 -48 76 -69 87 -65z m-306 48 c-13 -18
-17 -19 -27 -7 -10 11 -10 20 -1 37 11 19 14 20 27 6 14 -13 14 -18 1 -36z
m710 9 c22 -16 53 -50 67 -74 l27 -46 -64 -70 -63 -69 -58 57 -57 56 65 66
c68 68 76 84 49 94 -18 7 -29 2 -61 -27 -13 -11 -23 -17 -23 -13 0 10 53 55
66 56 6 0 29 -13 52 -30z m-668 -4 c0 -2 -8 -10 -17 -17 -16 -13 -17 -12 -4 4
13 16 21 21 21 13z m520 -11 c15 -18 4 -56 -16 -48 -17 6 -19 -8 -2 -25 7 -7
9 -12 5 -12 -4 0 -21 15 -37 33 l-29 32 20 18 c26 21 43 22 59 2z m-67 -52
c10 -10 23 -27 29 -38 6 -13 2 -10 -14 7 -41 48 -137 66 -164 31 -22 -29 -17
-33 39 -33 54 0 85 -18 100 -60 4 -12 6 -12 6 1 1 23 51 42 51 19 0 -5 -9 -10
-20 -10 -15 0 -21 -9 -26 -41 -9 -55 -42 -100 -89 -123 -22 -10 -53 -25 -70
-33 -29 -15 -31 -14 -63 24 -19 21 -45 59 -58 85 l-24 47 27 18 c41 25 103 84
118 114 14 25 15 26 76 17 35 -4 71 -16 82 -25z m397 -94 c27 -23 48 -45 45
-48 -2 -4 8 -7 22 -6 43 0 38 -23 -20 -81 -38 -38 -59 -52 -71 -48 -9 4 -15
14 -13 23 2 9 -19 43 -46 76 l-49 59 36 33 c20 18 38 33 42 33 3 0 27 -19 54
-41z m-720 -34 c0 -11 -69 -80 -129 -127 -39 -32 -81 -37 -81 -10 0 25 30 69
95 140 l58 63 29 -28 c15 -14 28 -32 28 -38z m415 4 c39 -34 43 -53 18 -81
-23 -25 -45 -23 -76 10 -22 23 -26 33 -20 65 7 47 29 49 78 6z m70 -69 c3 -6
-1 -7 -9 -4 -18 7 -21 14 -7 14 6 0 13 -4 16 -10z m-95 -57 c3 -3 -6 -13 -19
-22 -24 -18 -25 -18 -49 10 -13 16 -28 26 -34 23 -5 -4 4 -20 21 -38 24 -25
28 -35 19 -44 -20 -20 -43 -14 -67 18 -12 17 -27 28 -33 24 -7 -5 2 -19 25
-40 30 -28 33 -35 21 -45 -12 -9 -22 -8 -50 7 -44 24 -71 52 -58 62 5 5 28 15
52 22 25 8 55 27 70 45 l27 32 35 -25 c19 -14 37 -27 40 -29z m103 24 c4 3 7
4 7 0 0 -3 -7 -12 -15 -21 -13 -12 -21 -13 -40 -4 -24 11 -24 12 -8 30 15 16
18 17 33 3 9 -8 20 -12 23 -8z m307 -33 c-7 -7 -24 -14 -38 -14 l-26 0 35 36
c31 33 34 34 37 14 2 -12 -2 -28 -8 -36z m-364 -53 c-10 -16 -31 -14 -46 4
-10 12 -10 18 0 31 12 13 15 13 33 -4 11 -11 16 -25 13 -31z m-61 -51 c-8 -13
-28 -13 -43 2 -9 9 -8 16 5 30 16 17 17 17 30 -2 8 -11 11 -25 8 -30z m-71 -5
c-4 -9 -1 -15 7 -15 9 0 10 -3 2 -11 -6 -6 -21 -8 -32 -4 l-21 6 22 19 c28 24
29 24 22 5z"/>
<path d="M2157 9868 c36 -37 57 -52 34 -24 -9 11 -9 15 1 19 7 3 2 6 -12 6
l-25 1 25 21 25 21 -27 -16 c-22 -13 -28 -14 -28 -3 0 8 -7 14 -15 14 -10 0
-3 -14 22 -39z"/>
<path d="M971 9896 c-8 -10 -9 -16 -1 -21 6 -4 10 -3 9 2 -4 21 2 24 19 12 15
-13 16 -12 3 4 -16 21 -16 21 -30 3z"/>
<path d="M1026 9901 c-10 -16 29 -39 63 -36 26 1 35 -2 39 -17 4 -15 7 -17 13
-6 6 9 9 2 9 -19 0 -17 3 -34 8 -36 10 -7 2 86 -10 100 -7 8 -17 9 -39 1 -23
-8 -35 -7 -54 6 -13 9 -26 12 -29 7z m38 -30 c-2 -3 -12 3 -22 13 -16 17 -16
18 5 5 12 -7 20 -15 17 -18z m83 -7 c-9 -9 -28 6 -21 18 4 6 10 6 17 -1 6 -6
8 -13 4 -17z"/>
<path d="M1035 9850 c10 -11 20 -20 23 -20 3 0 -3 9 -13 20 -10 11 -20 20 -23
20 -3 0 3 -9 13 -20z"/>
<path d="M969 9827 c6 -6 18 -12 27 -13 12 -2 14 0 5 9 -6 6 -18 12 -27 13
-12 2 -14 0 -5 -9z"/>
<path d="M1090 9795 c13 -14 26 -25 28 -25 3 0 -5 11 -18 25 -13 14 -26 25
-28 25 -3 0 5 -11 18 -25z"/>
<path d="M990 9790 c0 -8 5 -22 10 -30 9 -13 10 -13 10 0 0 8 -5 22 -10 30 -9
13 -10 13 -10 0z"/>
<path d="M1015 9729 c-4 -6 -14 -8 -22 -5 -8 3 -11 1 -8 -4 3 -6 27 -9 53 -8
40 1 42 2 13 5 -26 3 -31 7 -20 14 9 5 10 9 2 9 -6 0 -15 -5 -18 -11z"/>
<path d="M1120 9705 c13 -14 26 -25 28 -25 3 0 -5 11 -18 25 -13 14 -26 25
-28 25 -3 0 5 -11 18 -25z"/>
<path d="M1786 9695 c-4 -22 -15 -53 -23 -69 l-16 -30 31 26 c17 14 37 28 43
30 8 3 5 16 -8 43 l-20 38 -7 -38z"/>
<path d="M1430 9701 c0 -20 56 -71 78 -71 26 0 10 28 -33 59 -41 29 -45 30
-45 12z"/>
<path d="M1173 9532 l-33 -17 65 -21 65 -21 -25 29 c-14 16 -25 34 -25 39 0
13 -10 11 -47 -9z"/>
<path d="M1060 9275 c-18 -19 -20 -25 -8 -25 15 0 48 30 48 43 0 14 -17 6 -40
-18z"/>
<path d="M1843 9325 c-21 -15 -35 -48 -48 -111 -5 -27 -2 -35 22 -52 l29 -21
0 56 c-1 50 2 58 30 82 29 25 30 27 12 44 -22 21 -19 20 -45 2z"/>
<path d="M1907 9078 c11 -13 24 -31 29 -40 9 -16 13 -16 49 7 38 23 39 24 14
25 -15 0 -46 7 -70 15 l-43 16 21 -23z"/>
<path d="M1375 8954 c-11 -8 -26 -19 -34 -23 -11 -7 -10 -15 6 -44 l18 -37 16
60 c9 33 15 60 15 60 -1 0 -10 -8 -21 -16z"/>
<path d="M1640 8937 c0 -8 20 -28 45 -46 41 -29 45 -30 45 -12 0 11 -15 31
-33 45 -37 29 -57 33 -57 13z"/>
</g>
</svg>
